{"glyphs":{"0":{"ha":617,"x_min":0,"x_max":0,"o":"m 117 53 b 308 -25 171 1 239 -25 b 497 50 376 -25 444 0 l 511 64 b 582 249 558 117 582 182 b 308 522 582 400 460 522 b 119 447 240 522 172 497 l 106 433 b 117 53 7 325 11 156 z m 463 396 b 547 226 510 347 540 288 b 503 71 554 167 539 111 l 490 58 b 358 10 454 26 408 10 b 161 94 292 10 219 39 z m 114 426 l 126 439 b 258 488 163 472 208 488 b 456 403 325 488 397 458 l 154 101 b 69 271 107 150 76 210 b 114 426 63 332 78 386 z "},"1":{"ha":203,"x_min":0,"x_max":0,"o":"m 118 524 l 24 417 l 24 394 l 118 501 l 118 0 l 179 0 l 179 524 z "},"2":{"ha":438,"x_min":0,"x_max":0,"o":"m 393 0 l 393 11 l 94 11 l 335 208 b 399 344 375 242 399 292 b 213 524 399 444 311 524 b 76 467 161 524 113 503 l 85 460 l 85 461 b 186 501 113 489 150 501 b 338 344 271 501 338 428 b 278 217 338 294 315 249 l 14 0 z "},"3":{"ha":538,"x_min":0,"x_max":0,"o":"m 57 310 b 51 333 57 313 51 332 b 203 490 40 429 106 503 b 411 290 301 476 392 388 b 413 278 411 286 413 283 b 378 163 418 231 406 190 b 261 128 351 135 310 122 b 232 135 251 129 242 132 l 232 86 b 475 -175 354 60 460 -50 b 431 -332 482 -236 465 -292 b 417 -346 428 -335 419 -344 b 283 -394 381 -379 333 -394 b 81 -307 215 -394 140 -365 l 38 -351 b 232 -431 92 -404 161 -431 b 510 -151 386 -431 510 -306 b 319 113 510 -32 433 76 b 447 304 394 147 446 221 l 447 319 b 383 461 444 375 421 425 b 229 524 344 501 289 525 b 17 315 114 522 19 429 l 17 310 z "},"4":{"ha":454,"x_min":0,"x_max":0,"o":"m 0 64 l 22 -1 l 344 -1 l 344 -81 l 356 -81 l 356 -1 l 431 -1 l 431 10 l 356 10 l 356 363 l 431 444 l 431 522 z m 31 10 l 31 11 l 344 351 l 344 10 z "},"5":{"ha":417,"x_min":0,"x_max":0,"o":"m 13 36 b 164 -25 56 -4 110 -25 b 314 35 218 -25 272 -6 l 325 46 b 382 192 363 88 382 139 b 165 408 382 311 285 408 b 100 399 143 408 121 406 l 100 511 l 313 511 l 313 522 l 89 522 l 89 375 b 100 382 93 378 97 379 b 164 400 121 394 143 400 b 319 192 269 400 319 281 b 279 51 319 142 307 92 b 275 46 278 50 276 47 b 271 40 274 44 272 42 b 164 -17 242 3 203 -17 b 56 42 125 -17 86 3 b 40 67 50 50 44 58 l 11 39 z "},"6":{"ha":499,"x_min":0,"x_max":0,"o":"m 99 35 b 250 -28 139 -6 194 -28 b 463 179 364 -28 458 64 l 463 196 b 249 400 460 310 361 400 b 93 332 190 400 131 376 b 363 603 151 449 247 542 l 386 615 l 382 625 l 358 613 b 50 265 206 536 115 418 b 99 35 21 186 38 96 z m 79 294 b 208 367 101 344 154 371 b 358 294 265 363 318 335 b 431 125 400 251 435 188 b 382 29 431 88 413 51 b 264 8 349 4 304 0 b 140 78 218 18 174 44 b 79 294 88 131 46 219 z "},"7":{"ha":303,"x_min":0,"x_max":0,"o":"m 21 461 l 32 461 l 32 513 l 228 513 l 100 0 l 163 0 l 286 524 l 21 524 z "},"8":{"ha":586,"x_min":0,"x_max":0,"o":"m 111 -362 b 293 -431 161 -407 226 -431 b 572 -151 447 -431 572 -304 b 383 113 572 -32 497 76 b 413 129 392 111 407 125 b 508 325 475 174 514 247 b 293 524 499 438 407 524 l 290 524 b 115 431 222 524 154 488 b 110 194 68 361 65 267 b 140 156 118 181 129 168 b 203 113 158 139 179 124 l 183 106 l 158 93 b 14 -143 72 46 18 -46 b 111 -362 11 -226 47 -308 z m 94 29 b 101 36 97 32 99 35 b 108 43 103 39 106 42 b 242 93 144 76 192 93 b 536 -175 386 93 521 -33 b 492 -332 543 -236 528 -292 b 486 -339 490 -335 488 -336 b 344 -394 449 -376 397 -394 b 50 -128 201 -394 65 -269 b 94 29 43 -67 58 -11 z m 113 386 b 218 490 121 440 163 482 b 403 418 286 500 356 465 b 474 229 450 369 486 299 b 367 126 464 176 421 135 b 185 200 300 118 231 153 b 118 308 156 229 131 267 b 113 386 110 333 108 360 z "},"9":{"ha":476,"x_min":0,"x_max":0,"o":"m 25 318 l 25 300 b 242 96 31 185 126 96 b 394 164 299 96 356 121 b 125 -107 336 47 243 -47 l 101 -118 l 107 -128 l 131 -115 b 411 174 253 -54 354 50 b 438 231 419 193 431 211 b 390 461 468 311 451 400 b 238 525 349 503 293 525 b 25 318 125 525 29 431 z m 57 371 b 107 468 60 408 76 444 b 224 489 139 492 185 496 b 347 418 271 479 314 451 b 410 203 400 365 442 276 b 281 129 388 153 333 125 b 131 203 224 133 171 163 b 57 371 89 244 54 308 z "},"Æ":{"ha":347,"x_min":0,"x_max":0,"o":""},"\u0000":{"ha":0,"x_min":0,"x_max":0,"o":""},"\r":{"ha":463,"x_min":0,"x_max":0,"o":""}," ":{"ha":347,"x_min":0,"x_max":0,"o":""},"A":{"ha":790,"x_min":0,"x_max":0,"o":"m 0 0 l 118 0 l 118 11 b 83 61 93 11 75 36 l 219 451 b 238 463 222 460 229 464 b 338 350 293 454 336 407 b 436 222 339 289 378 235 b 578 286 497 208 551 239 b 603 285 583 297 599 297 l 689 35 b 672 11 693 24 685 11 l 672 0 l 790 0 l 790 11 b 753 38 774 11 758 22 l 449 919 l 467 919 l 467 931 l 329 931 l 288 814 b 319 768 311 814 328 790 l 72 63 b 0 11 61 32 32 11 z m 235 493 l 374 889 b 394 889 376 900 392 900 l 579 353 b 582 339 581 349 582 343 b 464 229 578 278 526 229 b 347 346 399 229 347 278 b 246 472 347 408 304 460 b 235 493 236 474 231 483 z "},"y":{"ha":506,"x_min":0,"x_max":0,"o":"m -118 -319 b -28 -426 -111 -372 -75 -408 b 18 -432 -12 -431 3 -432 b 196 -432 78 -429 138 -432 b 307 -360 242 -432 290 -403 b 315 -314 317 -336 315 -314 l 306 -314 b 196 -421 306 -375 256 -421 b 18 -419 138 -421 78 -422 b -56 -387 -10 -419 -37 -408 b -85 -317 -75 -368 -85 -342 b -29 -229 -85 -278 -61 -247 b 13 -221 -15 -224 -1 -221 l 90 -222 b 235 -107 165 -222 215 -176 l 263 -22 l 432 461 b 504 513 443 492 471 513 l 504 522 l 386 522 l 386 513 b 424 475 407 513 424 494 b 421 463 424 471 422 467 l 274 44 b 253 44 271 35 256 35 l 100 488 b 118 513 96 500 106 513 l 118 522 l 0 522 l 0 513 b 38 486 19 513 31 504 l 199 14 l 201 3 b 239 -50 229 3 249 -25 l 219 -101 b 211 -121 217 -108 214 -114 b 199 -137 206 -131 203 -132 b 167 -158 190 -147 178 -154 b 129 -167 154 -164 142 -165 l 4 -167 b -93 -221 -33 -167 -72 -192 b -118 -319 -114 -249 -124 -286 z "},"B":{"ha":1011,"x_min":0,"x_max":0,"o":"m 733 0 b 1000 261 878 0 997 117 b 924 449 1001 331 975 397 b 771 528 883 492 828 519 b 750 565 753 531 743 549 b 769 665 763 597 769 631 b 504 931 769 811 650 931 l 24 931 l 24 919 b 64 879 46 919 64 901 l 64 51 b 24 11 64 29 46 11 l 24 0 z m 381 400 l 504 400 b 714 503 589 400 665 440 b 751 519 722 515 736 521 b 815 501 772 519 799 513 b 929 265 883 460 929 371 b 810 26 929 158 881 67 b 733 11 789 13 758 11 l 164 11 b 125 49 143 11 125 28 l 125 144 b 381 400 125 286 240 400 z m 164 919 l 504 921 b 539 918 515 921 526 919 b 588 900 556 915 574 910 b 701 665 656 858 701 769 b 504 410 701 546 639 410 l 381 410 b 154 283 285 410 201 360 b 125 292 146 271 125 276 l 125 882 b 164 919 125 903 143 919 z "},"C":{"ha":1057,"x_min":0,"x_max":0,"o":"m 40 419 b 483 -24 61 186 250 -3 b 874 118 636 -36 776 21 b 1018 464 963 207 1018 329 l 1018 475 l 932 475 l 932 464 b 978 421 956 464 978 444 l 978 419 b 874 133 985 303 947 211 b 860 119 869 128 864 124 b 560 17 782 46 675 8 b 81 496 313 33 97 249 b 176 789 72 608 107 711 l 190 803 b 467 914 263 875 360 914 l 481 914 b 522 869 504 913 522 893 l 533 869 l 533 954 l 522 954 b 182 810 390 953 269 897 b 40 419 85 713 28 572 z "},"D":{"ha":1049,"x_min":0,"x_max":0,"o":"m 142 0 l 565 0 b 1010 465 811 11 1010 218 b 565 931 1010 713 811 919 l 24 931 l 24 919 b 64 879 46 919 64 901 l 64 51 b 24 11 64 29 46 11 l 24 0 z m 125 51 l 125 879 b 165 919 125 901 143 919 l 554 919 b 940 465 767 914 940 710 b 557 11 940 222 768 18 l 165 11 b 125 51 143 11 125 29 z "},"E":{"ha":526,"x_min":0,"x_max":0,"o":"m 515 0 l 515 50 l 504 50 l 504 49 b 467 11 504 28 488 11 l 167 11 b 126 51 143 11 126 29 l 126 347 b 179 401 126 376 150 401 l 325 401 b 379 347 356 401 379 376 l 390 347 l 390 465 l 379 465 b 325 411 379 436 356 411 l 179 411 b 126 465 150 411 126 436 l 126 879 b 167 919 126 901 143 919 l 467 919 b 504 882 488 919 504 903 l 515 882 l 515 931 l 24 931 l 24 919 b 51 908 35 919 44 915 b 64 879 60 901 64 890 l 64 51 b 24 11 64 29 46 11 l 24 0 z "},"F":{"ha":529,"x_min":0,"x_max":0,"o":"m 24 931 l 24 919 b 51 908 35 919 44 915 b 64 879 60 901 64 890 l 64 51 b 24 11 64 29 46 11 l 24 0 l 164 0 l 164 11 b 126 49 143 11 126 28 l 126 347 b 179 401 126 378 150 401 l 326 401 b 381 347 357 401 381 376 l 392 347 l 392 465 l 381 465 b 326 411 381 436 356 411 l 179 411 b 126 464 150 411 126 435 l 126 879 b 167 919 126 901 143 919 l 468 919 b 507 882 490 919 507 903 l 518 882 l 518 931 z "},"G":{"ha":1057,"x_min":0,"x_max":0,"o":"m 42 464 b 532 -25 42 194 263 -25 b 1018 413 788 -25 986 165 b 1011 510 1022 444 1024 479 b 893 589 993 557 943 590 b 776 506 842 589 793 554 b 765 449 771 488 768 468 b 746 393 763 429 757 410 b 696 368 735 378 715 365 b 658 411 675 369 657 390 l 647 411 l 647 271 l 658 271 b 685 335 660 294 667 319 b 722 358 696 344 710 350 b 774 428 747 374 767 400 b 783 490 778 449 778 469 b 878 576 794 535 833 569 b 993 522 922 583 971 561 b 1008 432 1010 494 1011 463 b 626 17 999 221 840 32 b 563 15 606 14 583 14 b 83 494 315 32 100 247 l 83 504 b 179 789 78 614 113 714 b 194 803 185 793 189 799 b 469 913 265 875 363 913 l 489 913 l 496 911 b 535 868 518 910 535 890 l 546 868 l 546 953 l 531 953 b 42 464 261 953 42 733 z "},"H":{"ha":538,"x_min":0,"x_max":0,"o":"m 64 879 l 64 51 b 24 11 64 29 46 11 l 24 0 l 164 0 l 164 11 b 126 49 142 11 126 26 l 126 369 b 156 399 126 386 139 399 l 385 399 b 415 369 401 399 415 386 l 415 51 b 375 11 415 29 397 11 l 375 0 l 514 0 l 514 11 b 488 22 504 11 494 15 b 476 49 481 28 476 38 l 476 879 b 514 919 476 901 493 918 l 514 931 l 375 931 l 375 919 b 415 879 397 919 415 901 l 415 440 b 385 410 415 424 401 410 l 156 410 b 126 440 139 410 126 424 l 126 879 b 164 919 126 901 142 918 l 164 931 l 24 931 l 24 919 b 64 879 46 919 64 901 z "},"I":{"ha":175,"x_min":0,"x_max":0,"o":"m 11 919 b 39 908 22 919 32 915 b 51 879 47 901 51 890 l 51 51 b 11 11 51 29 33 11 l 11 0 l 151 0 l 151 11 b 114 49 129 11 114 26 l 114 879 b 151 919 114 901 129 918 l 151 931 l 11 931 z "},"J":{"ha":713,"x_min":0,"x_max":0,"o":"m 0 247 l 0 236 b 40 201 21 236 38 221 b 303 -22 65 75 172 -22 b 340 -19 315 -22 328 -22 b 568 244 469 -1 568 111 l 569 892 b 597 921 569 907 582 921 l 649 921 b 678 892 665 921 678 907 l 678 881 l 689 881 l 689 931 l 232 931 l 232 881 l 243 881 l 243 892 b 272 921 243 907 256 921 l 468 921 b 497 892 485 921 497 907 l 497 243 b 338 -8 497 118 428 13 b 307 -11 328 -10 318 -11 b 267 -8 293 -11 279 -11 b 110 203 186 11 124 96 b 139 236 108 221 122 236 l 139 247 z "},"K":{"ha":811,"x_min":0,"x_max":0,"o":"m 24 11 l 24 0 l 164 0 l 164 11 b 138 22 153 11 143 15 b 126 49 131 29 126 38 l 126 396 b 190 461 126 432 154 461 l 281 461 b 728 78 506 461 690 297 b 671 11 735 43 707 11 l 671 0 l 811 0 l 811 11 b 740 71 776 11 746 36 b 381 461 713 260 568 419 b 504 588 449 463 504 518 l 504 828 b 590 942 504 882 540 928 b 611 944 593 943 603 944 l 619 944 b 701 910 651 944 681 931 b 671 839 728 883 708 839 l 671 828 l 811 828 l 811 839 b 732 886 778 839 747 857 b 619 954 711 926 668 954 l 560 954 b 433 828 490 954 433 899 l 433 588 b 318 471 433 524 382 471 l 190 471 b 126 536 154 471 126 500 l 126 881 b 164 921 126 903 143 919 l 164 932 l 24 932 l 24 921 b 53 910 35 921 44 917 b 64 881 60 903 64 892 l 64 51 b 24 11 64 29 46 11 z "},"L":{"ha":515,"x_min":0,"x_max":0,"o":"m 515 0 l 515 50 l 504 50 l 504 49 b 465 11 504 28 488 11 l 165 11 b 125 51 143 11 125 29 l 125 879 b 165 919 125 901 143 919 l 165 931 l 24 931 l 24 919 b 51 907 35 919 44 915 b 64 879 60 900 64 890 l 64 51 b 24 11 64 29 46 11 l 24 0 z "},"M":{"ha":981,"x_min":0,"x_max":0,"o":"m 0 11 l 0 0 l 93 0 l 93 11 b 63 50 72 11 57 31 l 289 876 b 313 876 293 889 310 889 l 540 31 b 525 11 543 21 536 11 l 525 0 l 618 0 l 618 11 b 590 32 606 11 593 19 l 511 325 b 511 367 508 339 508 353 l 651 876 b 675 876 654 889 672 889 l 903 31 b 889 11 906 21 899 11 l 889 0 l 981 0 l 981 11 b 953 32 968 11 957 19 l 714 919 l 728 919 l 728 931 l 621 931 l 588 814 b 615 778 607 814 621 796 l 513 401 b 492 401 510 390 494 390 l 351 919 l 365 919 l 365 931 l 257 931 l 225 814 b 253 778 244 814 257 796 l 54 51 b 0 11 47 28 25 11 z "},"N":{"ha":539,"x_min":0,"x_max":0,"o":"m 24 11 l 24 0 l 164 0 l 164 11 b 99 75 128 11 99 40 l 99 846 b 115 849 99 856 113 857 l 385 0 l 515 0 l 515 11 b 450 75 479 11 450 40 l 450 856 b 515 919 450 892 479 919 l 515 931 l 375 931 l 375 919 b 439 856 410 919 439 892 l 439 85 b 424 82 439 76 426 74 l 153 931 l 24 931 l 24 919 b 89 856 60 919 89 892 l 89 75 b 24 11 89 40 60 11 z "},"O":{"ha":1057,"x_min":0,"x_max":0,"o":"m 182 118 b 529 -26 278 22 403 -26 b 875 118 654 -26 779 22 b 875 811 1067 310 1067 619 b 529 956 779 907 654 956 b 182 811 403 956 278 907 b 182 118 -11 619 -11 310 z m 190 803 b 468 914 265 878 364 914 b 824 760 592 914 722 861 b 867 126 1010 574 1029 289 b 590 15 793 51 693 15 b 233 169 465 15 335 68 b 190 803 46 357 26 639 z "},"P":{"ha":739,"x_min":0,"x_max":0,"o":"m 11 931 l 11 919 b 39 908 22 919 32 915 b 51 879 47 901 51 890 l 51 51 b 11 11 51 29 33 11 l 11 0 l 151 0 l 151 11 b 114 49 129 11 114 26 l 114 232 b 126 278 114 249 118 264 b 342 397 172 350 251 397 l 428 397 b 700 668 578 397 703 519 b 433 931 699 814 579 931 z m 151 919 l 433 919 b 494 913 456 919 475 918 b 632 664 575 879 632 781 b 496 417 632 549 575 453 b 433 408 468 410 456 408 l 342 408 b 153 328 268 408 201 378 b 136 321 147 324 142 321 b 114 344 125 321 114 331 l 114 879 b 151 919 114 901 129 918 z "},"Q":{"ha":1057,"x_min":0,"x_max":0,"o":"m 182 118 b 578 -22 290 10 436 -36 l 1018 -22 l 1018 -12 b 878 114 1017 54 975 110 b 876 118 875 114 875 117 b 825 854 1076 325 1064 672 b 528 954 738 921 632 954 b 203 831 411 954 294 913 b 182 118 -8 642 -15 315 z m 190 804 b 467 914 264 878 364 914 b 824 760 592 914 722 863 b 867 126 1007 576 1021 292 b 846 122 863 121 853 119 b 776 228 806 140 776 181 b 892 344 776 292 828 344 l 892 354 b 765 228 822 354 765 299 b 824 122 765 183 789 144 b 825 90 836 114 836 97 b 589 15 757 40 675 15 b 233 169 465 15 335 68 b 190 804 46 357 26 640 z m 717 13 b 836 83 758 29 799 53 b 892 103 851 96 871 103 b 1006 8 947 103 994 61 b 989 -12 1007 -3 1000 -12 l 721 -12 b 717 13 707 -12 704 7 z "},"R":{"ha":1004,"x_min":0,"x_max":0,"o":"m 51 908 b 64 879 60 901 64 890 l 64 51 b 24 11 64 29 46 11 l 24 0 l 164 0 l 164 11 b 126 49 142 11 126 26 l 126 232 b 139 278 126 249 131 264 b 354 397 185 350 264 397 l 440 397 b 517 408 467 397 493 401 b 531 411 522 410 526 411 b 921 79 722 408 885 267 b 864 11 928 43 900 11 l 864 0 l 1004 0 l 1004 11 b 933 71 969 11 939 36 b 582 418 903 250 763 392 b 578 435 572 418 571 431 b 713 668 660 482 715 569 b 446 931 711 814 592 931 l 24 931 l 24 919 b 51 908 35 919 44 915 z m 164 919 l 446 919 b 507 913 468 919 488 918 b 644 664 588 879 644 781 b 521 421 644 554 593 460 b 446 408 501 411 468 408 l 354 408 b 165 328 281 408 214 378 b 149 321 160 324 154 321 b 126 344 138 321 126 331 l 126 879 b 164 919 126 901 142 918 z "},"S":{"ha":600,"x_min":0,"x_max":0,"o":"m 33 610 b 189 421 53 528 111 454 b 243 397 207 413 225 406 b 296 375 261 390 279 382 b 314 368 303 372 308 369 b 433 308 354 351 400 338 b 472 261 449 294 463 278 b 497 160 490 231 499 194 b 411 17 497 101 460 46 b 292 -15 376 -6 333 -17 b 100 189 185 -7 100 82 l 90 189 l 90 4 l 100 4 b 136 40 100 25 118 40 b 160 31 144 40 153 38 b 310 -28 200 -7 256 -28 b 375 -18 332 -28 354 -25 b 476 47 401 -18 460 28 b 528 156 504 78 522 115 b 511 281 533 197 528 240 b 501 300 508 288 504 293 b 414 385 481 336 450 365 b 318 428 383 401 350 414 b 211 472 283 443 247 457 b 71 621 147 497 93 553 b 58 717 60 651 56 685 b 288 938 67 836 171 929 b 379 929 318 940 350 938 b 568 726 475 900 547 825 l 578 728 l 578 918 l 568 918 b 521 871 568 889 546 871 b 488 883 510 871 497 875 b 363 944 453 914 410 935 b 288 950 338 950 313 951 b 31 732 164 946 56 853 b 33 610 22 692 24 650 z "},"T":{"ha":490,"x_min":0,"x_max":0,"o":"m 0 931 l 0 881 l 11 881 b 50 919 11 903 28 919 l 175 919 b 215 879 199 919 215 903 l 215 51 b 175 11 215 29 197 11 l 175 0 l 315 0 l 315 11 b 289 22 304 11 296 15 b 278 49 282 28 278 38 l 278 879 b 315 919 278 901 294 918 l 440 919 b 479 881 463 919 479 903 l 490 881 l 490 931 z "},"U":{"ha":728,"x_min":0,"x_max":0,"o":"m 21 931 l 21 921 b 49 908 32 921 42 917 b 61 881 56 901 61 892 l 61 274 b 356 -24 61 111 192 -24 b 650 274 518 -24 650 110 l 650 864 b 707 921 650 896 676 921 l 707 931 l 568 931 l 568 921 b 640 849 608 921 640 889 l 640 274 b 356 -12 640 115 513 -12 l 342 -12 b 122 224 217 -7 122 100 l 122 881 b 158 921 122 901 138 919 l 158 931 z "},"V":{"ha":790,"x_min":0,"x_max":0,"o":"m 24 913 b 38 893 29 908 35 901 l 340 11 l 322 11 l 322 0 l 461 0 l 465 11 b 433 56 442 11 425 33 l 718 868 b 790 919 728 900 757 919 l 790 931 l 672 931 l 672 919 b 710 882 693 919 710 903 b 707 871 710 879 708 875 l 417 42 b 396 42 414 32 399 32 l 188 644 l 188 646 l 144 768 l 101 896 b 118 919 97 908 106 919 l 118 931 l 0 931 l 0 919 b 24 913 8 919 17 917 z "},"W":{"ha":981,"x_min":0,"x_max":0,"o":"m 0 919 b 28 899 13 919 25 911 l 260 35 b 242 11 264 22 254 11 l 242 0 l 361 0 l 364 11 b 336 46 344 11 332 29 l 468 529 b 490 529 472 540 488 540 l 624 35 b 604 11 626 22 617 11 l 604 0 l 724 0 l 726 11 b 699 46 707 11 694 29 l 728 154 l 749 225 l 926 879 b 981 919 933 903 956 919 l 981 931 l 889 931 l 889 919 b 919 889 906 919 919 906 b 918 881 919 886 919 883 l 692 54 b 668 54 689 42 671 42 l 440 900 b 456 919 438 910 446 919 l 456 931 l 363 931 l 363 919 b 390 899 376 919 388 911 l 469 606 b 469 564 474 593 474 578 l 329 54 b 306 54 326 42 310 42 l 78 900 b 93 919 75 910 82 919 l 93 931 l 0 931 z "},"X":{"ha":490,"x_min":0,"x_max":0,"o":"m 0 11 l 0 0 l 118 0 l 118 11 b 81 49 97 11 81 28 b 83 61 81 53 82 57 l 222 458 b 244 458 226 468 240 468 l 389 35 b 372 11 393 24 385 11 l 372 0 l 490 0 l 490 11 b 468 18 482 11 474 14 b 453 38 461 22 456 29 l 271 567 b 271 597 268 576 268 588 l 374 889 b 417 919 379 907 397 919 l 449 919 l 449 931 l 329 931 l 325 919 b 357 875 349 919 364 897 l 269 624 b 251 624 267 615 254 615 l 150 919 l 168 919 l 168 931 l 49 931 l 49 919 l 53 919 b 94 889 72 919 89 908 l 222 521 b 222 490 225 511 225 500 l 72 63 b 0 11 61 32 32 11 z "},"Y":{"ha":488,"x_min":0,"x_max":0,"o":"m 24 913 b 38 893 29 908 35 901 l 188 456 b 193 422 192 444 193 433 l 193 51 b 153 11 193 29 175 11 l 153 0 l 293 0 l 293 11 b 267 22 282 11 274 15 b 256 49 260 28 256 38 l 256 396 b 261 431 256 407 257 419 l 415 868 b 488 919 425 900 454 919 l 488 931 l 369 931 l 369 919 b 406 882 390 919 406 903 b 404 871 406 879 406 875 l 267 479 b 244 481 264 469 249 469 l 144 768 l 101 896 b 118 919 97 908 106 919 l 118 931 l 0 931 l 0 919 b 24 913 8 919 17 917 z "},"Z":{"ha":532,"x_min":0,"x_max":0,"o":"m 21 11 l 21 0 l 511 0 l 511 50 l 500 50 b 461 11 500 28 483 11 l 151 11 b 133 35 139 11 128 24 l 249 339 b 254 353 250 343 253 350 l 460 889 b 504 919 467 908 485 919 l 511 919 l 511 931 l 21 931 l 21 881 l 32 881 b 71 919 32 903 49 919 l 379 919 b 392 901 389 919 396 910 l 63 38 b 46 18 60 29 54 22 b 21 11 39 14 31 11 z "},"a":{"ha":478,"x_min":0,"x_max":0,"o":"m 72 31 b 219 -26 110 -12 165 -33 b 339 44 268 -21 311 6 b 358 39 344 53 358 49 l 358 1 l 457 1 l 457 11 b 431 22 446 11 438 17 b 419 49 424 29 419 39 l 419 329 b 369 478 419 388 413 435 b 251 525 338 508 294 524 b 81 356 157 525 81 449 l 92 356 b 251 515 92 443 163 515 b 325 471 279 515 306 497 b 322 436 333 460 332 446 b 118 290 260 379 192 332 b 35 178 76 268 44 225 b 72 31 22 126 38 71 z m 88 254 b 124 282 99 265 110 274 b 328 426 206 326 272 375 b 353 419 336 435 349 431 b 358 372 356 410 358 394 l 358 119 b 311 28 353 85 338 53 l 310 26 b 251 6 294 13 275 6 b 67 169 165 6 82 88 b 88 254 60 204 67 235 z "},"b":{"ha":588,"x_min":0,"x_max":0,"o":"m 83 0 b 115 7 93 6 104 7 b 146 0 125 7 136 6 b 271 -31 183 -19 226 -31 l 276 -31 b 553 250 429 -29 554 97 b 271 528 553 406 425 528 b 146 497 226 528 183 517 b 119 514 133 490 119 500 l 121 772 b 158 813 121 793 138 811 l 158 824 l 18 824 l 18 813 b 47 801 29 813 40 808 b 58 772 54 793 58 783 l 54 75 l 54 51 b 14 11 54 29 36 11 l 14 0 z m 118 422 b 129 451 118 433 122 443 b 271 517 169 493 219 517 l 274 517 b 490 250 393 517 490 397 b 276 -19 492 103 396 -18 l 275 -19 b 128 50 218 -19 167 7 b 117 79 121 58 117 68 z "},"c":{"ha":610,"x_min":0,"x_max":0,"o":"m 35 247 b 308 -24 38 96 157 -24 l 311 -24 b 582 250 461 -21 582 99 l 543 250 b 547 228 544 243 546 235 b 497 67 554 164 536 107 b 358 11 461 29 411 11 b 160 97 292 11 218 40 b 119 433 56 199 38 350 b 258 489 156 469 203 489 l 279 489 b 308 483 290 488 299 486 l 308 524 l 306 524 b 113 442 232 522 164 493 b 35 247 61 389 33 319 z "},"d":{"ha":588,"x_min":0,"x_max":0,"o":"m 311 -31 l 315 -31 b 471 18 372 -31 426 -14 l 471 0 l 574 0 l 574 11 b 533 51 551 11 533 29 l 533 75 l 529 774 b 569 814 529 796 547 814 l 569 825 l 429 824 l 429 813 b 467 772 450 811 467 794 l 468 521 b 436 500 468 504 451 493 b 315 528 399 518 358 528 b 118 447 242 529 171 500 b 35 250 65 396 35 325 b 311 -31 33 97 158 -29 z m 97 250 b 314 518 97 397 194 517 l 315 518 b 457 451 368 517 418 493 b 468 422 465 443 468 433 l 471 79 b 460 50 471 68 467 58 b 313 -19 421 7 369 -19 l 311 -19 b 97 250 192 -18 96 103 z "},"e":{"ha":610,"x_min":0,"x_max":0,"o":"m 35 246 b 133 39 36 169 71 86 l 138 35 b 308 -25 185 -4 246 -25 l 311 -25 b 582 249 463 -22 582 97 l 543 249 b 496 65 554 181 547 117 b 358 10 460 28 411 10 b 189 71 301 10 242 31 b 183 99 181 78 178 89 b 314 522 260 226 314 372 l 304 522 b 113 439 232 521 164 492 b 35 246 61 388 33 318 z m 119 432 b 258 488 156 468 203 488 l 276 488 b 288 486 279 488 282 488 b 301 468 294 483 301 476 b 176 107 294 399 269 267 b 151 104 171 99 158 97 b 72 256 108 147 88 197 b 119 432 61 321 75 386 z "},"f":{"ha":318,"x_min":0,"x_max":0,"o":"m 14 11 l 14 0 l 161 0 l 161 11 b 121 51 139 11 121 29 l 121 139 l 119 482 l 119 494 b 136 511 119 504 126 511 l 294 511 l 294 522 l 136 522 b 118 540 126 522 118 531 l 118 697 b 204 810 118 751 156 796 b 226 813 211 811 219 813 l 235 813 b 315 779 267 813 294 800 l 324 771 b 350 699 339 751 349 726 l 360 699 l 360 708 b 321 789 357 732 342 771 b 233 824 299 811 268 824 l 175 824 b 56 700 108 824 56 767 l 56 539 b 39 522 56 529 49 522 l 14 522 l 14 511 l 39 511 b 56 496 49 511 56 504 l 54 75 l 54 51 b 14 11 54 29 36 11 z "},"g":{"ha":647,"x_min":0,"x_max":0,"o":"m 42 -375 b 136 -429 64 -406 99 -426 b 242 -428 168 -431 208 -429 b 368 -429 285 -428 326 -428 b 535 -321 447 -429 517 -410 b 538 -300 536 -314 538 -307 l 526 -300 b 471 -397 526 -339 506 -378 b 360 -415 438 -417 397 -417 b 183 -411 301 -415 242 -414 b 119 -401 163 -410 139 -410 b 60 -324 88 -387 65 -357 b 60 -294 58 -314 58 -304 b 104 -226 64 -265 81 -242 b 200 -210 132 -208 168 -208 b 401 -206 267 -210 335 -207 b 522 -197 442 -204 483 -204 b 632 -60 586 -186 638 -128 l 632 -58 b 554 56 628 -8 603 36 b 543 94 539 61 533 81 b 557 378 600 179 604 289 b 567 413 551 390 556 406 b 632 522 606 433 632 475 l 621 522 b 557 419 621 476 594 438 b 525 426 546 414 535 418 b 506 446 517 433 513 440 b 313 525 453 499 382 525 b 115 442 240 525 168 497 b 119 50 8 332 10 157 b 313 -29 174 -3 243 -29 b 467 18 367 -29 419 -12 b 524 35 483 29 504 35 b 615 -24 563 35 600 15 b 599 -117 628 -56 619 -92 b 557 -149 588 -131 574 -142 b 501 -158 539 -157 522 -160 b 376 -154 460 -158 418 -157 b 186 -150 314 -150 250 -151 b 76 -175 147 -150 110 -151 b 42 -375 10 -218 -7 -311 z m 122 435 b 263 490 158 471 208 490 b 554 225 406 490 536 364 b 503 63 561 161 543 103 b 363 7 467 25 417 7 b 71 271 221 7 89 132 b 122 435 64 335 82 393 z "},"h":{"ha":468,"x_min":0,"x_max":0,"o":"m 24 0 l 167 0 l 167 11 b 138 24 156 11 144 15 b 126 51 131 31 126 40 l 128 379 b 238 513 135 436 171 513 b 346 375 293 513 339 453 l 344 75 l 344 51 b 304 11 344 31 326 11 l 304 1 l 406 0 l 447 0 l 447 11 b 418 24 436 11 425 15 b 407 51 411 31 407 40 l 408 353 l 408 354 b 238 524 408 447 329 524 b 158 504 208 524 182 517 b 129 522 144 497 129 507 l 131 749 l 131 772 b 168 813 131 793 147 813 l 171 813 l 171 824 l 28 824 l 28 814 b 68 772 51 811 68 797 l 67 425 l 65 360 l 65 353 l 64 75 l 64 51 b 24 11 64 31 44 11 z "},"i":{"ha":178,"x_min":0,"x_max":0,"o":"m 24 524 l 24 513 b 64 472 46 513 64 494 l 64 51 b 24 11 64 29 46 11 l 24 0 l 164 0 l 164 11 b 126 49 142 11 126 26 l 126 472 b 164 513 126 493 142 511 l 164 524 z m 93 633 l 133 674 l 93 714 l 53 674 z "},"j":{"ha":179,"x_min":0,"x_max":0,"o":"m -181 -314 b -54 -431 -175 -379 -121 -431 l 6 -431 b 29 -428 13 -431 21 -429 b 124 -306 83 -414 124 -365 l 124 17 l 125 449 l 125 472 b 165 513 125 496 143 513 l 165 524 l 18 524 l 18 513 b 58 472 40 513 58 496 l 60 449 l 61 -19 l 61 -306 b 60 -321 61 -311 61 -315 b 58 -329 60 -324 60 -326 b -25 -417 50 -371 17 -404 b -46 -419 -32 -418 -39 -419 l -54 -419 b -171 -306 -119 -419 -168 -369 l -171 -304 l -181 -304 z m 50 675 l 90 635 l 131 675 l 90 715 z "},"k":{"ha":454,"x_min":0,"x_max":0,"o":"m 51 801 b 64 774 60 794 64 785 l 64 51 b 24 11 64 29 46 11 l 24 0 l 164 0 l 164 11 b 126 49 142 11 126 26 l 126 232 b 144 251 126 243 135 251 l 206 251 b 443 0 339 246 443 133 l 454 0 b 281 247 454 111 385 210 b 278 267 272 250 271 261 b 306 324 294 279 306 300 l 306 456 b 367 517 306 489 333 517 b 428 456 400 517 428 489 l 439 456 b 367 528 439 494 407 528 l 315 528 b 244 456 276 528 244 496 l 244 324 b 183 261 244 289 217 263 l 144 261 b 126 281 135 261 126 271 l 126 774 b 164 814 126 794 142 813 l 164 824 l 24 824 l 24 814 b 51 801 35 814 44 808 z "},"l":{"ha":178,"x_min":0,"x_max":0,"o":"m 24 814 b 51 801 35 814 44 808 b 64 774 60 794 64 785 l 64 51 b 24 11 64 29 46 11 l 24 0 l 164 0 l 164 11 b 126 49 142 11 126 26 l 126 824 l 24 824 z "},"m":{"ha":738,"x_min":0,"x_max":0,"o":"m 14 0 l 157 0 l 157 11 b 128 24 146 11 135 15 b 117 51 121 31 117 40 l 118 379 l 118 428 b 226 513 121 489 172 513 b 336 426 279 513 336 488 l 336 351 l 335 76 l 335 51 b 294 13 335 32 314 13 l 294 1 l 396 0 l 436 0 l 436 11 b 397 51 417 11 397 31 l 399 379 l 399 428 b 447 501 399 460 418 489 b 507 513 467 508 486 513 b 617 426 560 513 617 488 l 617 374 l 615 76 l 615 51 b 574 13 615 29 594 13 l 574 1 l 676 0 l 717 0 l 717 11 b 676 51 696 11 676 31 l 679 351 l 679 356 b 507 524 676 449 600 524 b 379 465 461 524 408 501 b 356 465 372 458 361 457 l 338 483 b 226 524 307 508 269 524 b 149 503 200 524 172 515 b 115 522 133 496 115 506 l 115 524 l 14 524 l 14 513 b 54 472 35 513 54 493 l 54 51 b 14 13 54 32 33 13 z "},"n":{"ha":457,"x_min":0,"x_max":0,"o":"m 21 513 b 61 472 42 513 61 493 l 61 51 b 21 13 61 32 40 13 l 21 0 l 164 0 l 164 11 b 124 51 142 11 124 29 l 125 379 l 125 428 b 233 513 128 488 181 513 b 343 426 286 513 343 489 l 343 374 l 342 76 l 342 51 b 301 13 342 29 322 13 l 301 1 l 403 0 l 443 0 l 443 11 b 403 51 422 11 403 31 l 406 351 l 406 356 b 233 524 403 450 326 524 b 156 503 207 524 179 515 b 122 522 140 496 122 506 l 122 524 l 21 524 z "},"o":{"ha":617,"x_min":0,"x_max":0,"o":"m 117 53 b 308 -25 171 1 239 -25 b 497 50 376 -25 444 0 l 511 64 b 582 249 558 117 582 182 b 308 522 582 400 460 522 b 119 447 240 522 172 497 l 106 433 b 117 53 7 325 11 156 z m 114 426 l 126 439 b 258 488 163 472 208 488 b 547 226 397 488 532 364 b 503 71 554 167 539 111 l 490 58 b 358 10 456 26 408 10 b 69 271 217 10 88 132 b 114 426 63 332 78 386 z "},"p":{"ha":590,"x_min":0,"x_max":0,"o":"m 24 511 b 64 471 46 511 64 493 l 64 447 l 68 -344 b 57 -372 68 -354 64 -365 b 28 -383 49 -379 39 -383 l 28 -394 l 167 -393 l 167 -383 b 129 -343 146 -382 129 -364 l 128 -76 l 128 -14 b 160 6 128 3 144 13 b 278 -22 196 -12 236 -22 b 556 253 431 -22 556 99 b 282 529 557 404 435 528 l 278 529 b 143 493 231 529 183 517 b 125 504 135 489 125 494 l 125 522 l 24 521 z m 136 450 b 281 519 174 493 225 519 l 282 519 b 494 253 400 518 496 399 b 281 -11 493 107 397 -11 l 278 -11 b 138 54 226 -11 176 13 b 128 82 131 63 128 72 l 125 424 b 136 450 125 433 129 443 z "},"q":{"ha":579,"x_min":0,"x_max":0,"o":"m 35 256 b 117 61 35 182 64 113 b 311 -18 169 10 239 -19 b 431 10 354 -18 393 -8 b 463 -11 444 17 463 6 l 463 -72 l 461 -339 b 424 -379 461 -360 444 -378 l 424 -389 l 561 -390 l 561 -379 b 522 -340 539 -379 522 -362 l 524 106 l 526 450 l 526 474 b 565 514 526 496 544 514 l 565 524 l 465 525 l 465 507 b 447 496 465 497 456 492 b 311 532 406 519 360 532 l 307 532 b 35 256 156 531 33 407 z m 307 522 l 308 522 b 454 453 365 522 415 496 b 464 426 461 446 464 436 l 464 247 l 463 86 b 451 58 463 75 458 65 b 311 -8 413 15 364 -7 l 310 -8 b 96 256 193 -7 97 111 b 307 522 94 401 190 521 z "},"r":{"ha":379,"x_min":0,"x_max":0,"o":"m 14 513 b 42 500 25 513 35 508 b 54 472 50 493 54 483 l 54 51 b 17 13 54 32 36 13 l 14 13 l 14 0 l 157 0 l 157 11 b 117 51 135 11 117 29 l 118 379 l 118 428 b 167 501 118 460 139 488 l 168 501 b 226 513 186 508 206 513 b 286 501 249 513 268 508 b 289 500 288 501 288 500 b 336 431 317 489 335 461 l 379 431 b 338 483 368 450 354 468 b 226 524 307 508 269 524 b 149 503 200 524 172 515 b 115 522 133 496 115 506 l 115 524 l 14 524 z "},"s":{"ha":429,"x_min":0,"x_max":0,"o":"m 57 275 b 275 164 107 204 200 193 b 329 124 297 156 317 143 b 338 50 343 101 347 75 b 333 43 336 47 335 44 b 239 -17 317 8 275 -11 b 131 10 201 -21 161 -12 l 126 14 b 93 56 114 22 99 42 b 85 94 92 58 82 94 l 74 94 l 74 -24 l 85 -24 b 83 -1 86 -17 85 -10 b 93 18 83 6 86 14 b 106 17 97 19 101 18 b 117 8 110 14 114 11 b 203 -26 140 -12 171 -24 b 368 71 272 -33 349 -1 b 301 208 382 126 349 182 b 167 260 260 233 211 244 b 63 353 121 276 76 303 b 90 454 53 389 64 428 b 246 507 129 496 189 514 b 369 438 294 501 342 478 b 383 415 375 431 379 424 b 389 399 383 414 388 399 l 401 399 l 401 511 l 392 511 l 392 469 b 367 460 392 456 375 450 b 214 519 331 497 275 521 b 76 468 164 518 114 501 b 57 275 21 418 15 335 z "},"t":{"ha":314,"x_min":0,"x_max":0,"o":"m 14 515 l 14 442 l 15 97 l 15 96 b 108 -24 15 39 54 -10 b 132 -26 117 -25 124 -26 l 190 -26 b 314 88 256 -26 308 24 l 314 99 l 304 97 b 190 -15 304 33 253 -15 l 182 -15 b 161 -12 175 -15 168 -14 b 79 74 119 -1 88 32 b 78 82 78 76 78 79 b 76 96 76 86 76 92 l 78 422 l 78 464 b 124 510 78 490 99 510 l 163 510 l 163 521 l 124 521 b 78 567 99 521 78 542 l 78 603 z "},"u":{"ha":457,"x_min":0,"x_max":0,"o":"m 14 524 l 14 513 b 54 472 36 513 54 494 l 53 147 l 53 144 b 224 -24 53 51 132 -24 b 333 17 264 -24 304 -7 l 333 0 l 436 0 l 436 11 b 407 22 425 11 415 15 b 396 51 400 31 396 40 l 396 472 b 436 513 396 493 414 513 l 436 524 l 293 524 l 293 513 b 322 500 304 513 315 508 b 333 472 329 493 333 483 l 333 182 l 332 121 l 332 72 b 283 -1 332 40 313 11 b 224 -12 264 -8 244 -12 b 114 72 171 -12 114 11 l 114 126 l 115 449 l 115 472 b 157 513 115 493 136 513 l 157 524 z "},"v":{"ha":508,"x_min":0,"x_max":0,"o":"m 38 486 l 200 11 l 182 11 l 182 0 l 319 0 l 324 11 b 292 56 301 11 285 33 l 435 463 b 508 514 446 493 475 514 l 508 524 l 389 524 l 389 514 b 426 476 411 514 426 496 b 425 464 426 472 426 468 l 276 42 b 254 42 272 32 258 32 l 101 489 b 118 514 97 501 106 514 l 118 524 l 0 524 l 0 514 b 38 486 17 514 32 501 z "},"w":{"ha":794,"x_min":0,"x_max":0,"o":"m 0 513 b 38 486 18 513 31 503 l 200 11 l 182 11 l 182 0 l 319 0 l 324 11 b 290 44 304 11 290 26 b 292 56 290 49 290 51 l 374 293 b 392 293 376 301 389 301 l 486 14 l 469 11 l 469 0 l 608 0 l 611 11 b 578 44 592 11 578 26 b 581 56 578 49 579 51 l 722 461 b 794 513 733 492 763 513 l 794 524 l 676 524 l 676 513 b 714 475 699 513 714 494 b 713 463 714 471 714 467 l 564 42 b 542 42 560 32 546 32 l 389 489 b 407 513 385 501 394 513 l 407 524 l 288 524 l 288 513 b 325 486 306 513 318 503 l 375 339 b 375 326 376 333 376 331 l 275 42 b 254 42 272 32 258 32 l 101 489 b 118 513 97 500 106 513 l 118 524 l 0 524 z "},"x":{"ha":296,"x_min":0,"x_max":0,"o":"m 0 0 l 118 0 l 118 11 b 82 58 88 11 76 33 l 128 189 b 140 189 131 194 139 194 l 194 31 b 176 11 196 21 188 11 l 176 0 l 294 0 l 294 11 b 257 38 278 11 263 22 l 236 101 l 172 286 b 172 315 169 296 169 306 l 224 461 b 296 513 235 492 264 513 l 296 524 l 178 524 l 178 513 b 215 475 200 513 215 494 b 214 464 215 472 215 468 l 168 335 b 156 335 167 329 158 329 l 101 493 b 119 513 101 503 110 513 l 119 524 l 1 524 l 1 513 b 39 486 19 513 32 503 l 124 238 b 124 208 128 228 128 218 l 72 63 b 0 11 61 32 32 11 z "},"z":{"ha":328,"x_min":0,"x_max":0,"o":"m 14 0 l 307 0 l 307 11 l 132 11 b 114 31 121 11 113 21 l 269 486 b 307 513 276 503 289 513 l 307 524 l 14 524 l 14 513 l 189 513 b 207 493 200 513 208 503 l 51 38 b 38 18 49 29 43 24 b 14 11 31 14 22 11 z "},"!":{"ha":136,"x_min":0,"x_max":0,"o":"m 68 57 l 28 17 l 68 -24 l 108 17 z m 74 931 l 63 931 l 63 150 l 74 150 z "},"@":{"ha":893,"x_min":0,"x_max":0,"o":"m 146 131 b 447 0 224 47 333 0 l 832 0 l 832 11 l 447 11 b 153 138 336 11 229 57 b 46 440 76 221 39 328 b 418 813 60 639 219 799 b 721 706 531 821 639 782 b 849 413 801 631 849 524 b 847 389 849 404 849 396 b 629 183 842 274 746 183 l 604 182 l 604 518 b 436 688 604 611 529 688 b 267 518 342 688 267 611 l 276 518 b 436 676 276 606 349 676 b 567 608 490 676 538 650 b 354 454 510 551 440 501 b 267 297 297 422 264 363 b 428 136 271 211 342 140 l 436 136 b 594 247 506 136 571 182 l 594 171 l 629 172 b 858 389 751 172 851 268 l 858 413 b 728 714 858 526 811 636 b 418 824 643 792 533 831 b 36 442 214 810 50 644 b 146 131 28 325 67 215 z m 360 444 b 572 599 446 492 515 543 b 594 518 586 575 594 547 l 594 306 b 544 192 594 263 576 221 b 428 147 514 161 472 146 b 278 299 347 151 281 218 b 360 444 275 360 306 415 z "},"#":{"ha":515,"x_min":0,"x_max":0,"o":"m 0 4 l 10 0 l 114 296 l 319 296 l 217 4 l 226 0 l 331 296 l 425 296 l 425 306 l 333 306 l 408 518 l 503 518 l 503 528 l 413 528 l 515 821 l 506 824 l 401 528 l 196 528 l 299 821 l 289 824 l 185 528 l 79 528 l 79 518 l 181 518 l 107 306 l 1 306 l 1 296 l 103 296 z m 118 306 l 192 518 l 397 518 l 322 306 z "},"$":{"ha":524,"x_min":0,"x_max":0,"o":"m 7 625 b 158 442 25 543 82 474 l 257 401 l 257 3 l 254 3 b 122 58 201 3 161 25 b 64 200 85 96 64 146 l 53 200 b 54 174 51 200 54 176 b 60 147 56 165 57 156 b 151 22 72 94 107 51 b 233 -7 176 8 206 -3 b 247 -8 238 -7 243 -8 l 254 -8 b 257 -14 257 -10 257 -11 l 257 -28 l 267 -28 l 267 -8 b 410 53 317 -8 376 14 l 418 61 b 461 233 460 108 476 171 b 342 376 447 299 403 350 l 267 408 l 267 922 l 276 922 b 513 718 392 918 490 831 b 524 719 517 718 519 719 b 508 769 525 721 510 765 b 290 932 471 858 386 922 b 267 933 282 933 275 933 l 267 951 l 257 951 l 257 933 b 74 856 188 933 122 904 b 64 846 69 853 67 849 b 7 625 10 786 -11 706 z m 71 839 b 81 849 75 842 78 844 b 257 924 128 896 190 922 l 257 413 l 163 451 b 17 626 89 483 35 549 b 71 839 0 704 19 781 z m 267 397 l 338 367 b 451 232 394 342 438 293 b 410 68 465 172 450 113 l 401 60 b 267 1 365 24 318 3 z "},"%":{"ha":340,"x_min":0,"x_max":0,"o":"m 235 42 l 275 1 l 314 42 l 275 82 z m 106 782 l 65 822 l 26 782 l 65 742 z m 310 824 l 21 4 l 31 0 l 319 821 z "},"^":{"ha":247,"x_min":0,"x_max":0,"o":"m 124 957 l 0 833 l 7 826 l 124 943 l 240 826 l 247 833 z "},"&":{"ha":867,"x_min":0,"x_max":0,"o":"m 29 169 b 240 -36 43 61 131 -28 b 389 1 293 -42 346 -28 b 444 51 411 15 429 35 l 581 193 b 610 193 588 201 601 201 l 747 56 b 728 11 763 39 751 11 l 728 0 l 867 0 l 867 11 b 764 54 828 11 790 26 l 615 203 b 614 229 607 210 607 221 b 649 304 631 251 643 276 b 638 410 656 339 651 376 b 522 514 617 458 574 501 b 469 583 492 524 469 550 l 469 586 l 458 586 l 458 447 l 469 447 b 522 500 469 478 494 500 b 543 496 529 500 536 499 b 565 483 550 492 558 488 b 628 406 593 464 615 436 b 638 307 640 375 644 339 b 610 242 633 283 624 261 b 578 239 601 232 588 229 l 331 488 b 329 519 321 496 321 511 l 447 644 b 467 671 454 653 461 663 b 493 794 489 708 499 753 b 325 954 482 879 411 949 b 210 922 283 957 243 946 l 197 913 b 186 903 193 910 190 907 b 167 882 179 896 174 889 l 46 757 l 246 556 b 247 522 256 547 256 532 l 89 357 b 64 325 79 347 72 336 b 29 169 35 278 24 222 z m 104 299 b 131 329 126 325 117 315 l 289 481 b 322 481 299 489 313 489 l 572 231 b 571 200 581 222 579 208 l 485 117 l 431 67 b 376 21 413 49 396 33 b 243 -7 336 -4 289 -12 b 71 174 150 4 79 81 b 104 299 68 218 81 263 z m 61 757 l 181 868 b 201 888 188 875 194 882 b 211 896 204 890 208 893 l 222 903 b 322 924 253 921 288 928 b 411 879 356 919 388 903 b 450 790 433 854 447 822 b 425 699 453 757 443 725 b 410 679 421 692 415 685 l 286 563 b 254 564 278 554 263 554 z "},"*":{"ha":265,"x_min":0,"x_max":0,"o":"m 0 746 l 122 675 l 0 604 l 6 596 l 128 667 l 128 525 l 139 525 l 139 667 l 261 596 l 265 604 l 143 675 l 265 746 l 261 756 l 139 685 l 139 826 l 128 826 l 128 685 l 6 756 z "},"(":{"ha":174,"x_min":0,"x_max":0,"o":"m 103 74 l 143 -28 l 153 -24 l 113 78 b 153 947 0 360 15 676 l 143 951 b 103 74 6 678 -10 358 z "},")":{"ha":174,"x_min":0,"x_max":0,"o":"m 21 947 b 61 78 157 676 174 360 l 21 -24 l 31 -28 l 71 74 b 31 951 183 358 168 678 z "},"[":{"ha":199,"x_min":0,"x_max":0,"o":"m 21 -28 l 178 -28 l 178 -17 l 32 -17 l 32 940 l 178 940 l 178 951 l 21 951 z "},"]":{"ha":199,"x_min":0,"x_max":0,"o":"m 21 951 l 21 940 l 167 940 l 167 -17 l 21 -17 l 21 -28 l 178 -28 l 178 951 z "},"{":{"ha":275,"x_min":0,"x_max":0,"o":"m 31 517 b 97 347 74 469 97 410 l 97 129 b 254 -28 97 42 168 -28 l 254 -17 b 108 129 174 -17 108 49 l 108 347 b 42 519 108 411 85 472 b 108 693 85 568 108 629 l 108 794 b 254 940 108 875 174 940 l 254 951 b 97 794 168 951 97 881 l 97 693 b 31 524 97 629 74 569 l 28 519 z "},"}":{"ha":275,"x_min":0,"x_max":0,"o":"m 21 -28 b 178 129 107 -28 178 42 l 178 347 b 243 517 178 410 201 469 l 247 519 l 243 524 b 178 693 201 569 178 629 l 178 794 b 21 951 178 881 107 951 l 21 940 b 167 794 101 940 167 875 l 167 693 b 232 519 167 629 190 568 b 167 347 190 472 167 411 l 167 129 b 21 -17 167 49 101 -17 z "},"-":{"ha":449,"x_min":0,"x_max":0,"o":"m 432 415 l 17 415 l 17 406 l 432 406 z "},"_":{"ha":1010,"x_min":0,"x_max":0,"o":"m 17 -15 l 17 -28 l 993 -28 l 993 -15 z "},"+":{"ha":457,"x_min":0,"x_max":0,"o":"m 21 421 l 21 411 l 224 411 l 224 208 l 233 208 l 233 411 l 436 411 l 436 421 l 233 421 l 233 624 l 224 624 l 224 421 z "},"=":{"ha":457,"x_min":0,"x_max":0,"o":"m 21 418 l 21 408 l 436 408 l 436 418 z m 436 264 l 436 274 l 21 274 l 21 264 z "},":":{"ha":121,"x_min":0,"x_max":0,"o":"m 21 39 l 60 0 l 100 39 l 60 79 z m 100 301 l 60 342 l 21 301 l 60 263 z "},";":{"ha":144,"x_min":0,"x_max":0,"o":"m 43 42 l 76 10 l 21 -46 l 28 -53 l 124 42 l 83 82 z m 124 304 l 83 344 l 43 304 l 83 265 z "},"\"":{"ha":244,"x_min":0,"x_max":0,"o":"m 125 867 l 163 828 l 201 867 l 171 897 l 224 951 l 217 958 z m 60 828 l 99 867 l 67 897 l 119 951 l 113 958 l 21 867 z "},"“":{"ha":244,"x_min":0,"x_max":0,"o":"m 125 863 l 163 824 l 201 863 l 171 893 l 224 947 l 217 954 z m 60 824 l 99 863 l 67 893 l 119 947 l 113 954 l 21 863 z "},"”":{"ha":244,"x_min":0,"x_max":0,"o":"m 74 893 l 43 863 l 82 824 l 119 863 l 28 954 l 21 947 z m 178 893 l 146 863 l 185 824 l 224 863 l 132 954 l 125 947 z "},"'":{"ha":140,"x_min":0,"x_max":0,"o":"m 21 949 l 74 894 l 43 864 l 82 825 l 119 864 l 28 956 z "},"´":{"ha":140,"x_min":0,"x_max":0,"o":"m 113 956 l 21 864 l 58 825 l 97 864 l 67 894 l 119 949 z "},"|":{"ha":53,"x_min":0,"x_max":0,"o":"m 32 951 l 21 951 l 21 -28 l 32 -28 z "},"/":{"ha":353,"x_min":0,"x_max":0,"o":"m 353 947 l 343 951 l 0 -24 l 10 -28 z "},"\\":{"ha":353,"x_min":0,"x_max":0,"o":"m 343 -28 l 353 -24 l 10 951 l 0 947 z "},"?":{"ha":535,"x_min":0,"x_max":0,"o":"m 35 638 l 44 635 b 158 789 56 699 100 760 b 201 807 172 797 186 803 b 247 817 217 813 232 815 b 344 804 281 819 314 815 b 425 754 375 793 403 776 l 428 751 b 436 742 431 749 433 746 b 485 554 482 692 500 622 b 354 399 469 485 421 426 b 269 269 303 376 269 326 l 269 128 l 278 128 l 278 269 b 358 390 278 322 310 371 b 494 553 428 419 478 479 b 443 749 510 624 492 694 l 435 757 b 356 810 413 781 385 799 b 249 826 321 824 285 829 b 35 638 139 817 58 742 z m 274 -26 l 310 10 l 274 46 l 238 10 z "},"<":{"ha":199,"x_min":0,"x_max":0,"o":"m 178 383 l 38 524 l 178 663 l 169 671 l 21 524 l 169 375 z "},">":{"ha":199,"x_min":0,"x_max":0,"o":"m 29 375 l 178 524 l 29 671 l 21 663 l 161 524 l 21 383 z "},".":{"ha":121,"x_min":0,"x_max":0,"o":"m 21 25 l 60 -14 l 100 25 l 60 65 z "},",":{"ha":140,"x_min":0,"x_max":0,"o":"m 28 -69 l 119 22 l 82 61 l 43 22 l 74 -8 l 21 -62 z "},"`":{"ha":140,"x_min":0,"x_max":0,"o":"m 21 949 l 74 894 l 43 864 l 82 825 l 119 864 l 28 956 z "},"º":{"ha":186,"x_min":0,"x_max":0,"o":"m 28 247 b 93 182 28 211 57 182 b 158 247 129 182 158 211 b 93 313 158 283 129 313 b 28 247 57 313 28 283 z m 93 303 b 149 247 124 303 149 278 b 93 192 149 217 124 192 b 38 247 63 192 38 217 b 93 303 38 278 63 303 z "},"°":{"ha":131,"x_min":0,"x_max":0,"o":"m 0 889 b 65 824 0 853 29 824 b 131 889 101 824 131 853 b 65 954 131 925 101 954 b 0 889 29 954 0 925 z m 65 944 b 121 889 96 944 121 919 b 65 833 121 858 96 833 b 10 889 35 833 10 858 b 65 944 10 919 35 944 z "},"†":{"ha":319,"x_min":0,"x_max":0,"o":"m 21 357 l 21 346 l 154 346 l 154 0 l 165 0 l 165 346 l 299 346 l 299 357 l 165 357 l 165 524 l 154 524 l 154 357 z "},"‡":{"ha":319,"x_min":0,"x_max":0,"o":"m 21 346 l 154 346 l 154 176 l 21 176 l 21 165 l 154 165 l 154 0 l 165 0 l 165 165 l 299 165 l 299 176 l 165 176 l 165 346 l 299 346 l 299 357 l 165 357 l 165 524 l 154 524 l 154 357 l 21 357 z "},"˜":{"ha":307,"x_min":0,"x_max":0,"o":"m 28 250 b 89 276 46 268 68 276 b 150 250 111 276 133 268 b 218 222 169 232 193 222 b 286 250 243 222 268 232 l 279 258 b 218 233 263 242 240 233 b 157 258 197 233 175 242 b 89 286 139 278 114 286 b 21 258 64 286 40 278 z "},"©":{"ha":131,"x_min":0,"x_max":0,"o":"m 0 890 b 65 825 0 854 29 825 b 131 890 101 825 131 854 b 65 956 131 926 101 956 b 0 890 29 956 0 926 z m 65 946 b 121 890 96 946 121 921 b 65 835 121 860 96 835 b 10 890 35 835 10 860 b 65 946 10 921 35 946 z m 31 890 b 65 856 31 871 46 856 b 100 890 85 856 100 871 l 90 890 b 65 865 90 876 79 865 b 40 890 51 865 40 876 b 65 915 40 904 51 915 l 65 925 b 31 890 46 925 31 910 z "},"®":{"ha":157,"x_min":0,"x_max":0,"o":"m 68 931 l 68 824 l 79 824 l 79 911 l 113 889 l 147 911 l 147 824 l 157 824 l 157 931 l 113 901 z m 0 929 l 0 918 l 24 918 l 24 824 l 35 824 l 35 918 l 58 918 l 58 929 z "},"×":{"ha":342,"x_min":0,"x_max":0,"o":"m 28 267 l 171 410 l 315 267 l 321 274 l 178 417 l 321 561 l 315 567 l 171 424 l 28 567 l 21 561 l 164 417 l 21 274 z "},"ß":{"ha":708,"x_min":0,"x_max":0,"o":"m 24 929 l 24 918 b 64 878 46 918 64 900 l 64 49 b 24 8 64 26 46 8 l 24 -3 l 164 -3 l 164 8 b 138 19 153 8 143 13 b 126 46 131 26 126 35 l 126 878 b 164 918 126 899 142 917 l 299 918 b 494 664 432 918 494 781 b 451 500 494 601 478 544 b 454 424 436 476 438 446 l 613 265 b 663 144 644 233 664 189 b 372 -146 660 -1 518 -143 b 253 -96 328 -147 285 -128 l 214 -57 l 207 -65 l 244 -103 b 432 -181 296 -154 364 -181 b 619 -103 500 -181 568 -154 b 697 94 672 -50 700 19 b 617 276 694 163 665 228 l 465 426 b 468 460 456 436 457 451 b 563 669 528 510 564 585 b 292 929 558 814 436 929 z "},"Â":{"ha":790,"x_min":0,"x_max":0,"o":"m 0 0 l 118 0 l 118 11 b 82 50 97 11 81 29 b 83 60 82 54 82 57 l 219 450 b 236 461 222 458 229 463 b 336 349 292 453 335 406 b 435 221 338 288 376 233 b 521 232 467 214 496 219 b 578 286 544 243 565 263 b 586 293 579 290 583 293 b 601 285 592 294 599 292 l 688 35 b 669 11 690 24 682 11 l 669 0 l 790 0 l 790 11 b 753 38 774 11 758 22 l 450 917 l 465 917 l 465 919 l 467 919 l 467 931 l 329 931 l 286 811 b 318 765 310 811 326 788 l 72 63 b 0 11 61 32 32 11 z m 235 493 l 374 889 b 374 890 374 889 374 890 b 393 886 379 897 390 896 l 578 351 b 581 338 579 347 581 343 b 464 229 578 276 524 229 b 347 346 399 229 347 279 b 246 472 347 408 304 460 b 235 493 236 474 231 483 z m 319 951 l 394 1026 l 469 951 l 476 960 l 394 1042 l 311 960 z "},"Ä":{"ha":790,"x_min":0,"x_max":0,"o":"m 0 0 l 118 0 l 118 11 b 82 50 97 11 81 29 b 83 60 82 54 82 57 l 219 451 b 236 461 222 458 229 463 b 336 349 292 453 335 406 b 436 221 338 289 376 235 b 525 235 469 214 500 219 b 578 286 547 246 565 264 b 586 293 579 290 583 293 b 601 285 592 294 599 292 l 688 35 b 669 11 692 24 682 11 l 669 0 l 790 0 l 790 11 b 753 38 774 11 758 22 l 449 918 l 465 918 l 465 919 l 467 919 l 467 931 l 329 931 l 288 814 b 289 814 288 814 288 814 l 288 811 b 318 767 310 811 326 788 l 72 63 b 0 11 61 32 32 11 z m 235 493 l 374 889 b 374 890 374 889 374 890 b 393 888 379 897 390 896 l 578 351 b 581 338 579 347 581 343 b 465 231 575 276 528 231 b 347 346 399 231 347 278 b 246 472 347 408 304 460 b 235 493 236 474 231 483 z m 275 994 l 315 954 l 356 994 l 315 1035 z m 474 954 l 513 994 l 474 1035 l 433 994 z "},"À":{"ha":790,"x_min":0,"x_max":0,"o":"m 0 0 l 118 0 l 118 11 b 83 61 93 11 75 36 l 219 451 b 236 461 222 458 229 463 b 336 349 292 453 335 406 b 436 221 338 289 376 235 b 508 226 461 215 486 218 b 578 286 539 238 563 258 b 586 293 579 290 583 293 b 601 285 592 294 599 292 l 688 35 b 669 11 692 24 682 11 l 669 0 l 790 0 l 790 11 b 753 38 774 11 758 22 l 449 918 l 467 918 l 467 931 l 329 931 l 329 929 l 328 929 l 288 814 b 289 814 288 814 288 814 l 288 811 b 321 772 308 811 324 792 b 319 768 321 771 319 769 l 72 63 b 0 11 61 32 32 11 z m 235 493 l 374 889 b 374 890 374 889 374 890 b 393 888 379 897 390 896 l 578 353 b 581 338 579 347 581 343 b 465 231 575 276 528 231 b 347 346 399 231 347 278 b 246 472 347 408 304 460 b 235 493 236 474 231 483 z m 415 1356 l 468 1301 l 438 1271 l 476 1232 l 514 1271 l 422 1363 z m 358 1013 l 422 949 l 431 957 l 365 1021 z "},"Å":{"ha":790,"x_min":0,"x_max":0,"o":"m 0 0 l 118 0 l 118 11 b 82 50 97 11 81 29 b 83 60 82 54 82 57 l 219 450 b 236 461 222 458 229 463 b 336 349 292 453 335 406 b 435 221 338 288 376 233 b 521 232 467 214 496 219 b 578 286 544 243 565 263 b 586 293 579 290 583 293 b 601 285 592 294 599 292 l 688 35 b 669 11 690 24 682 11 l 669 0 l 790 0 l 790 11 b 753 38 774 11 758 22 l 450 917 l 465 917 l 465 919 l 467 919 l 467 931 l 329 931 l 286 811 b 318 765 310 811 326 788 l 72 63 b 0 11 61 32 32 11 z m 235 493 l 374 889 b 374 890 374 889 374 890 b 393 886 379 897 390 896 l 578 351 b 581 338 579 347 581 343 b 464 229 578 276 524 229 b 347 346 399 229 347 279 b 246 472 347 408 304 460 b 235 493 236 474 231 483 z m 336 1004 b 394 946 336 972 363 946 b 451 1004 426 946 451 972 b 394 1063 451 1036 426 1063 b 336 1004 363 1063 336 1036 z m 347 1004 b 394 1051 347 1031 368 1051 b 442 1004 419 1051 442 1031 b 394 957 442 978 419 957 b 347 1004 368 957 347 978 z "},"Ã":{"ha":790,"x_min":0,"x_max":0,"o":"m 0 0 l 118 0 l 118 11 b 83 61 93 11 75 36 l 219 451 b 238 463 222 458 229 464 b 338 349 293 454 336 407 b 436 222 339 289 378 235 b 578 286 497 208 551 239 b 603 285 583 297 599 297 l 689 35 b 671 11 693 24 683 11 l 671 0 l 790 0 l 790 11 b 751 38 772 11 757 22 l 449 919 l 467 919 l 467 931 l 329 931 l 288 813 b 319 768 311 813 328 790 l 72 63 b 0 11 61 32 32 11 z m 235 492 l 374 889 b 394 889 376 899 390 899 l 579 353 b 582 339 581 349 582 343 b 465 229 578 278 526 229 b 347 346 399 229 347 278 b 246 471 347 408 304 460 b 235 492 236 474 231 483 z m 329 978 l 336 969 b 364 981 344 978 354 981 b 392 969 374 981 385 978 b 426 956 400 960 414 956 b 461 969 439 956 451 960 l 453 978 b 426 967 446 971 436 967 b 399 978 415 967 406 971 b 364 992 389 988 376 992 b 329 978 351 992 339 988 z "},"~":{"ha":307,"x_min":0,"x_max":0,"o":"m 28 294 b 89 321 46 313 68 321 b 150 294 111 321 133 313 b 218 267 169 276 193 267 b 286 294 243 267 268 276 l 279 303 b 218 278 263 286 240 278 b 157 303 197 278 175 286 b 89 331 139 322 114 331 b 21 303 64 331 40 322 z "},"â":{"ha":478,"x_min":0,"x_max":0,"o":"m 72 31 b 219 -26 110 -12 165 -33 b 339 44 268 -21 311 6 b 358 39 344 53 358 49 l 358 1 l 457 1 l 457 11 b 431 22 446 11 438 17 b 419 49 424 29 419 39 l 419 329 b 369 478 419 388 413 435 b 251 525 338 508 294 524 b 81 356 157 525 81 449 l 92 356 b 251 515 92 443 163 515 b 325 471 279 515 306 497 b 322 436 333 460 332 446 b 118 290 260 379 192 332 b 35 178 76 268 44 225 b 72 31 22 126 38 71 z m 88 254 b 124 282 99 265 110 274 b 328 426 206 326 272 375 b 353 419 336 435 349 431 b 358 372 356 410 358 394 l 358 119 b 311 28 353 85 338 53 l 310 26 b 251 6 294 13 275 6 b 67 169 165 6 82 88 b 88 254 60 204 67 235 z m 168 619 l 243 693 l 317 619 l 325 626 l 243 708 l 161 626 z "},"ä":{"ha":478,"x_min":0,"x_max":0,"o":"m 72 31 b 219 -26 110 -12 165 -33 b 339 44 268 -21 311 6 b 358 39 344 53 358 49 l 358 1 l 457 1 l 457 11 b 431 22 446 11 438 17 b 419 49 424 29 419 39 l 419 329 b 369 478 419 388 413 435 b 251 525 338 508 294 524 b 81 356 157 525 81 449 l 92 356 b 251 515 92 443 163 515 b 325 471 279 515 306 497 b 322 436 333 460 332 446 b 118 290 260 379 192 332 b 35 178 76 268 44 225 b 72 31 22 126 38 71 z m 88 254 b 124 282 99 265 110 274 b 328 426 206 326 272 375 b 353 419 336 435 349 431 b 358 372 356 410 358 394 l 358 119 b 311 28 353 85 338 53 l 310 26 b 251 6 294 13 275 6 b 67 169 165 6 82 88 b 88 254 60 204 67 235 z m 322 650 l 363 690 l 322 731 l 282 690 z m 125 690 l 165 650 l 206 690 l 165 731 z "},"à":{"ha":478,"x_min":0,"x_max":0,"o":"m 72 31 b 219 -26 110 -12 165 -33 b 339 44 268 -21 311 6 b 358 39 344 53 358 49 l 358 1 l 457 1 l 457 11 b 431 22 446 11 438 17 b 419 49 424 29 419 39 l 419 329 b 369 478 419 388 413 435 b 251 525 338 508 294 524 b 81 356 157 525 81 449 l 92 356 b 251 515 92 443 163 515 b 325 471 279 515 306 497 b 322 436 333 460 332 446 b 118 290 260 379 192 332 b 35 178 76 268 44 225 b 72 31 22 126 38 71 z m 88 254 b 124 282 99 265 110 274 b 328 426 206 326 272 375 b 353 419 336 435 349 431 b 358 372 356 410 358 394 l 358 119 b 311 28 353 85 338 53 l 310 26 b 251 6 294 13 275 6 b 67 169 165 6 82 88 b 88 254 60 204 67 235 z m 272 622 l 279 631 l 215 694 l 208 686 z "},"å":{"ha":478,"x_min":0,"x_max":0,"o":"m 72 31 b 219 -26 110 -12 165 -33 b 339 44 268 -21 311 6 b 358 39 344 53 358 49 l 358 1 l 457 1 l 457 11 b 431 22 446 11 438 17 b 419 49 424 29 419 39 l 419 329 b 369 478 419 388 413 435 b 251 525 338 508 294 524 b 81 356 157 525 81 449 l 92 356 b 251 515 92 443 163 515 b 325 471 279 515 306 497 b 322 436 333 460 332 446 b 118 290 260 379 192 332 b 35 178 76 268 44 225 b 72 31 22 126 38 71 z m 88 254 b 124 282 99 265 110 274 b 328 426 206 326 272 375 b 353 419 336 435 349 431 b 358 372 356 410 358 394 l 358 119 b 311 28 353 85 338 53 l 310 26 b 251 6 294 13 275 6 b 67 169 165 6 82 88 b 88 254 60 204 67 235 z m 244 622 b 301 679 276 622 301 647 b 244 738 301 711 276 738 b 186 679 213 738 186 711 b 244 622 186 647 213 622 z m 197 679 b 244 726 197 706 218 726 b 292 679 269 726 292 706 b 244 632 292 653 269 632 b 197 679 218 632 197 653 z "},"ã":{"ha":478,"x_min":0,"x_max":0,"o":"m 72 31 b 219 -26 110 -12 165 -33 b 339 44 268 -21 311 6 b 358 39 344 53 358 49 l 358 1 l 457 1 l 457 11 b 431 22 446 11 438 17 b 419 49 424 29 419 39 l 419 329 b 369 478 419 388 413 435 b 251 525 338 508 294 524 b 81 356 157 525 81 449 l 92 356 b 251 515 92 443 163 515 b 325 471 279 515 306 497 b 322 436 333 460 332 446 b 118 290 260 379 192 332 b 35 178 76 268 44 225 b 72 31 22 126 38 71 z m 88 254 b 124 282 99 265 110 274 b 328 426 206 326 272 375 b 353 419 336 435 349 431 b 358 372 356 410 358 394 l 358 119 b 311 28 353 85 338 53 l 310 26 b 251 6 294 13 275 6 b 67 169 165 6 82 88 b 88 254 60 204 67 235 z m 179 643 l 186 636 b 214 647 194 644 204 647 b 240 636 224 647 233 644 b 275 622 250 626 263 622 b 310 636 288 622 300 626 l 301 643 b 275 633 294 636 285 633 b 247 643 265 633 256 636 b 214 658 239 653 226 658 b 179 643 201 658 189 653 z "},"Ç":{"ha":1061,"x_min":0,"x_max":0,"o":"m 40 418 b 486 -26 61 183 251 -6 b 542 -29 504 -29 524 -29 l 542 -89 b 440 -190 542 -144 497 -190 b 319 -311 374 -190 319 -244 b 440 -432 319 -378 374 -432 l 629 -432 b 742 -319 690 -432 742 -382 l 731 -319 b 629 -421 731 -375 685 -421 l 440 -421 b 331 -311 379 -421 331 -372 b 440 -201 331 -250 379 -201 b 553 -89 503 -201 553 -150 l 553 -28 b 1022 463 814 -17 1022 200 l 1022 474 l 936 474 l 936 463 b 981 422 960 463 979 444 l 982 418 b 876 129 989 301 951 208 l 864 117 b 561 13 785 42 678 6 b 81 494 314 29 97 246 b 178 789 72 607 107 711 b 183 796 179 792 182 793 b 192 803 186 799 189 801 b 468 914 264 875 361 914 l 483 914 b 525 869 507 913 525 893 l 536 869 l 536 954 l 525 954 b 183 810 392 953 271 899 b 40 418 85 711 26 571 z "},"ç":{"ha":611,"x_min":0,"x_max":0,"o":"m 35 243 b 308 -28 38 93 158 -28 l 313 -28 l 313 -51 b 265 -99 313 -78 290 -99 b 203 -160 231 -99 203 -126 b 265 -222 203 -194 231 -222 l 357 -222 b 415 -164 389 -222 415 -196 l 404 -164 b 357 -211 404 -190 383 -211 l 265 -211 b 214 -160 236 -211 214 -189 b 265 -110 214 -132 236 -110 b 322 -51 296 -110 322 -83 l 322 -28 b 504 54 392 -24 456 4 l 506 54 l 506 56 b 583 246 556 107 583 175 l 544 246 b 547 224 546 239 547 231 b 497 63 556 160 538 103 b 358 7 461 25 411 7 b 160 93 292 7 218 36 b 119 431 56 194 38 346 b 258 485 156 467 204 485 l 281 485 b 308 481 290 483 300 482 l 308 521 l 306 521 b 113 438 232 519 164 490 b 35 243 61 385 33 315 z "},"Ê":{"ha":526,"x_min":0,"x_max":0,"o":"m 515 0 l 515 50 l 504 50 l 504 49 b 465 11 504 28 488 11 l 165 11 b 125 51 143 11 125 29 l 125 347 b 179 400 125 376 150 400 l 325 400 b 379 347 354 400 379 376 l 389 347 l 389 465 l 379 465 b 325 411 379 435 354 411 l 179 411 b 125 465 150 411 125 435 l 125 879 b 165 919 125 901 143 919 l 465 919 b 504 881 488 919 504 903 l 515 881 l 515 931 l 24 931 l 24 919 b 51 907 35 919 44 915 b 64 879 60 900 64 890 l 64 51 b 24 11 64 29 46 11 l 24 0 z m 194 954 l 269 1029 l 344 954 l 351 961 l 269 1044 l 186 961 z "},"Ë":{"ha":525,"x_min":0,"x_max":0,"o":"m 514 0 l 514 50 l 504 50 l 504 49 b 465 11 504 28 486 11 l 165 11 b 125 51 143 11 125 29 l 125 346 b 179 400 125 376 150 400 l 325 400 b 378 346 354 400 378 376 l 389 346 l 389 464 l 378 464 b 325 411 378 435 354 411 l 179 411 b 125 464 150 411 125 435 l 125 878 b 165 918 125 900 143 918 l 465 918 b 504 881 486 918 504 901 l 514 881 l 514 929 l 24 929 l 24 918 b 64 878 46 918 64 900 l 64 51 b 24 11 64 29 46 11 l 24 0 z m 308 996 l 349 956 l 389 996 l 349 1036 z m 190 956 l 231 996 l 190 1036 l 150 996 z "},"È":{"ha":526,"x_min":0,"x_max":0,"o":"m 24 0 l 515 0 l 515 50 l 504 50 l 504 49 b 465 11 504 28 488 11 l 165 11 b 125 51 143 11 125 29 l 125 347 b 179 400 125 376 150 400 l 325 400 b 379 347 354 400 379 376 l 389 347 l 389 465 l 379 465 b 325 411 379 435 354 411 l 179 411 b 125 465 150 411 125 435 l 125 879 b 165 919 125 901 143 919 l 465 919 b 504 881 488 919 504 901 l 515 881 l 515 929 l 24 929 l 24 919 b 51 907 35 919 44 914 b 64 879 60 900 64 890 l 64 51 b 24 11 64 29 46 11 z m 435 1301 l 404 1271 l 443 1232 l 481 1271 l 389 1363 l 382 1356 z m 233 1014 l 297 950 l 306 957 l 240 1022 z "},"É":{"ha":526,"x_min":0,"x_max":0,"o":"m 24 929 l 24 919 b 51 907 35 919 44 914 b 64 879 60 900 64 890 l 64 51 b 24 11 64 29 46 11 l 24 0 l 515 0 l 515 50 l 504 50 l 504 49 b 465 11 504 28 488 11 l 165 11 b 125 51 143 11 125 29 l 125 347 b 179 400 125 376 150 400 l 325 400 b 379 347 354 400 379 376 l 389 347 l 389 465 l 379 465 b 325 411 379 435 354 411 l 179 411 b 125 465 150 411 125 435 l 125 879 b 165 919 125 901 143 919 l 465 919 b 504 881 488 919 504 901 l 515 881 l 515 929 z m 379 1271 l 417 1232 l 456 1271 l 425 1301 l 478 1356 l 471 1363 z m 233 957 l 240 950 l 306 1014 l 297 1022 z "},"ê":{"ha":608,"x_min":0,"x_max":0,"o":"m 35 246 b 133 39 36 169 71 86 l 138 35 b 308 -25 185 -4 246 -25 l 311 -25 b 582 249 463 -22 582 97 l 543 249 b 496 65 554 181 547 117 b 358 10 460 28 411 10 b 189 71 301 10 242 31 b 183 99 181 78 178 89 b 314 522 260 226 314 372 l 304 522 b 113 439 232 521 164 492 b 35 246 61 388 33 318 z m 119 432 b 258 488 156 468 203 488 l 276 488 b 288 486 279 488 282 488 b 301 468 294 483 301 476 b 176 107 294 399 269 267 b 151 104 171 99 158 97 b 72 256 108 147 88 197 b 119 432 61 321 75 386 z m 226 621 l 235 614 l 308 688 l 382 614 l 389 621 l 308 701 z "},"ë":{"ha":608,"x_min":0,"x_max":0,"o":"m 35 246 b 133 39 36 169 71 86 l 138 35 b 308 -25 185 -4 246 -25 l 311 -25 b 582 249 463 -22 582 97 l 543 249 b 496 65 554 181 547 117 b 358 10 460 28 411 10 b 189 71 301 10 242 31 b 183 99 181 78 178 89 b 314 522 260 226 314 372 l 304 522 b 113 439 232 521 164 492 b 35 246 61 388 33 318 z m 119 432 b 258 488 156 468 203 488 l 276 488 b 288 486 279 488 282 488 b 301 468 294 483 301 476 b 176 107 294 399 269 267 b 151 104 171 99 158 97 b 72 256 108 147 88 197 b 119 432 61 321 75 386 z m 385 615 l 425 656 l 385 694 l 346 656 z m 231 615 l 269 656 l 231 694 l 190 656 z "},"è":{"ha":608,"x_min":0,"x_max":0,"o":"m 35 246 b 133 39 36 169 71 86 l 138 35 b 308 -25 185 -4 246 -25 l 311 -25 b 582 249 463 -22 582 97 l 543 249 b 496 65 554 181 547 117 b 358 10 460 28 411 10 b 189 71 301 10 242 31 b 183 99 181 78 178 89 b 314 522 260 226 314 372 l 304 522 b 113 439 232 521 164 492 b 35 246 61 388 33 318 z m 119 432 b 258 488 156 468 203 488 l 276 488 b 288 486 279 488 282 488 b 301 468 294 483 301 476 b 176 107 294 399 269 267 b 151 104 171 99 158 97 b 72 256 108 147 88 197 b 119 432 61 321 75 386 z m 335 615 l 343 624 l 281 686 l 272 679 z "},"é":{"ha":608,"x_min":0,"x_max":0,"o":"m 35 246 b 133 39 36 169 71 86 l 138 35 b 308 -25 185 -4 246 -25 l 311 -25 b 582 249 463 -22 582 97 l 543 249 b 496 65 554 181 547 117 b 358 10 460 28 411 10 b 189 71 301 10 242 31 b 183 99 181 78 178 89 b 314 522 260 226 314 372 l 304 522 b 113 439 232 521 164 492 b 35 246 61 388 33 318 z m 119 432 b 258 488 156 468 203 488 l 276 488 b 288 486 279 488 282 488 b 301 468 294 483 301 476 b 176 107 294 399 269 267 b 151 104 171 99 158 97 b 72 256 108 147 88 197 b 119 432 61 321 75 386 z m 335 686 l 272 624 l 281 615 l 343 679 z "},"ì":{"ha":176,"x_min":0,"x_max":0,"o":"m 163 0 l 163 11 b 136 22 153 11 143 15 b 125 49 129 28 125 38 l 125 469 b 163 510 125 492 142 508 l 163 521 l 24 521 l 24 510 b 64 469 46 510 64 492 l 64 51 b 24 11 64 29 46 11 l 24 0 z m 121 631 l 129 638 l 65 701 l 57 694 z "},"î":{"ha":203,"x_min":0,"x_max":0,"o":"m 36 510 b 65 499 47 510 57 506 b 76 469 72 490 76 481 l 76 51 b 36 11 76 29 58 11 l 36 0 l 175 0 l 175 11 b 149 22 165 11 156 15 b 138 49 142 28 138 38 l 138 469 b 175 510 138 492 154 508 l 175 521 l 36 521 z m 31 631 l 106 706 l 181 631 l 189 638 l 106 721 l 24 638 z "},"ï":{"ha":222,"x_min":0,"x_max":0,"o":"m 46 0 l 186 0 l 186 11 b 160 22 175 11 165 15 b 149 49 153 28 149 38 l 149 469 b 186 510 149 492 164 508 l 186 521 l 46 521 l 46 510 b 75 499 57 510 68 506 b 86 469 82 490 86 481 l 86 51 b 46 11 86 29 68 11 z m 168 631 l 208 671 l 168 711 l 128 671 z m 64 631 l 104 671 l 64 711 l 24 671 z "},"í":{"ha":176,"x_min":0,"x_max":0,"o":"m 163 0 l 163 11 b 136 22 153 11 143 15 b 125 49 129 28 125 38 l 125 469 b 163 510 125 492 142 508 l 163 521 l 24 521 l 24 510 b 64 469 46 510 64 492 l 64 51 b 24 11 64 29 46 11 l 24 0 z m 65 631 l 129 694 l 121 701 l 57 638 z "},"Ì":{"ha":174,"x_min":0,"x_max":0,"o":"m 11 929 l 11 919 b 39 907 22 919 32 914 b 51 879 47 900 51 890 l 51 51 b 11 11 51 29 33 11 l 11 0 l 150 0 l 150 11 b 124 22 140 11 131 15 b 113 49 117 28 113 38 l 113 879 b 150 918 113 900 129 917 l 150 929 z m 271 1301 l 240 1271 l 279 1232 l 317 1271 l 225 1363 l 218 1356 z m 44 1014 l 110 950 l 117 957 l 53 1022 z "},"Í":{"ha":178,"x_min":0,"x_max":0,"o":"m 11 919 b 39 907 22 919 32 914 b 51 879 47 900 51 890 l 51 51 b 11 11 51 29 33 11 l 11 0 l 151 0 l 151 11 b 114 49 129 11 114 26 l 114 879 b 150 918 114 901 128 915 l 150 919 b 151 919 150 919 151 919 l 151 931 l 11 931 z m 197 1271 l 236 1232 l 244 1240 l 253 1232 l 292 1271 l 261 1301 l 314 1356 l 307 1363 l 244 1300 l 243 1301 l 296 1356 l 289 1363 z m 53 950 l 117 1014 l 110 1022 l 44 957 z "},"Î":{"ha":200,"x_min":0,"x_max":0,"o":"m 163 0 l 163 11 b 136 22 151 11 143 15 b 125 49 129 28 125 38 l 125 879 b 163 918 125 900 142 917 l 163 929 l 22 929 l 22 919 b 63 879 44 919 63 901 l 63 51 b 22 11 63 29 44 11 l 22 0 z m 10 961 l 17 954 l 99 1029 l 168 954 l 175 961 l 100 1044 z "},"Ï":{"ha":221,"x_min":0,"x_max":0,"o":"m 35 919 b 75 879 56 919 75 900 l 75 51 b 35 11 75 29 57 11 l 35 0 l 174 0 l 174 11 b 147 22 164 11 154 15 b 136 49 140 28 136 38 l 136 879 b 174 918 136 900 153 917 l 174 929 l 35 929 z m 117 996 l 157 956 l 197 996 l 157 1036 z m 11 996 l 51 956 l 92 996 l 51 1036 z "},"Ò":{"ha":1051,"x_min":0,"x_max":0,"o":"m 181 121 b 526 -22 276 26 401 -22 b 871 121 651 -22 776 26 b 871 811 1060 311 1061 621 b 526 953 776 906 651 953 b 181 811 401 953 276 906 b 181 121 -10 621 -10 311 z m 188 803 b 464 913 261 876 361 913 b 819 760 588 913 718 861 b 863 128 1006 574 1025 290 b 586 18 789 54 689 18 b 231 171 463 18 332 69 b 188 803 44 357 25 640 z m 554 968 l 563 976 l 496 1043 l 488 1035 z "},"Ö":{"ha":1051,"x_min":0,"x_max":0,"o":"m 181 119 b 526 -24 276 25 401 -24 b 871 119 651 -24 776 25 b 871 810 1060 310 1061 619 b 526 951 776 904 651 951 b 181 810 401 951 276 904 b 181 119 -10 619 -10 310 z m 188 801 b 464 911 261 875 361 911 b 819 758 588 911 718 860 b 863 126 1006 572 1025 289 b 586 17 789 53 689 17 b 231 169 463 17 332 68 b 188 801 44 356 25 639 z m 565 1028 l 607 986 l 649 1028 l 607 1069 z m 401 1028 l 443 986 l 485 1028 l 443 1069 z "},"Ô":{"ha":1051,"x_min":0,"x_max":0,"o":"m 181 122 b 526 -21 276 28 401 -21 b 871 122 651 -21 776 28 b 871 813 1060 313 1061 622 b 526 954 776 907 651 954 b 181 813 401 954 276 907 b 181 122 -10 622 -10 313 z m 188 804 b 464 914 261 878 361 914 b 819 761 588 914 718 863 b 863 129 1006 575 1025 292 b 586 19 789 56 689 19 b 231 172 463 19 332 71 b 188 804 44 358 25 642 z m 447 988 l 525 1065 l 603 988 l 611 994 l 525 1081 l 439 994 z "},"Õ":{"ha":1051,"x_min":0,"x_max":0,"o":"m 181 122 b 526 -21 276 28 401 -21 b 871 122 651 -21 776 28 b 871 813 1060 313 1061 622 b 526 954 776 907 651 954 b 181 813 401 954 276 907 b 181 122 -10 622 -10 313 z m 188 804 b 464 914 261 878 361 914 b 819 761 588 914 718 863 b 863 129 1006 575 1025 292 b 586 19 789 56 689 19 b 231 172 463 19 332 71 b 188 804 44 358 25 642 z m 465 990 b 493 1001 474 999 483 1001 b 521 990 503 1001 514 999 b 557 975 531 981 543 975 b 593 990 571 975 583 981 l 586 997 b 558 986 579 990 568 986 b 529 997 547 986 538 990 b 493 1013 519 1007 507 1013 b 457 997 481 1013 467 1007 z "},"Ó":{"ha":1051,"x_min":0,"x_max":0,"o":"m 181 122 b 526 -21 276 28 401 -21 b 871 122 651 -21 776 28 b 871 813 1060 313 1061 622 b 526 954 776 907 651 954 b 181 813 401 954 276 907 b 181 122 -10 622 -10 313 z m 188 804 b 464 914 261 878 361 914 b 819 761 588 914 718 863 b 863 129 1006 575 1025 292 b 586 19 789 56 689 19 b 231 172 463 19 332 71 b 188 804 44 358 25 642 z m 488 978 l 496 969 l 563 1036 l 554 1044 z "},"ô":{"ha":617,"x_min":0,"x_max":0,"o":"m 117 53 b 308 -25 171 1 239 -25 b 497 50 376 -25 444 0 l 511 64 b 582 249 558 117 582 182 b 308 522 582 400 460 522 b 119 447 240 522 172 497 l 106 433 b 117 53 7 325 11 156 z m 114 426 l 126 439 b 258 488 163 472 208 488 b 547 226 397 488 532 364 b 503 71 554 167 539 111 l 490 58 b 358 10 456 26 408 10 b 69 271 217 10 88 132 b 114 426 63 332 78 386 z m 235 618 l 308 692 l 382 618 l 389 626 l 308 707 l 226 626 z "},"õ":{"ha":617,"x_min":0,"x_max":0,"o":"m 117 53 b 308 -25 171 1 239 -25 b 497 50 376 -25 444 0 l 511 64 b 582 249 558 117 582 182 b 308 522 582 400 460 522 b 119 447 240 522 172 497 l 106 433 b 117 53 7 325 11 156 z m 114 426 l 126 439 b 258 488 163 472 208 488 b 547 226 397 488 532 364 b 503 71 554 167 539 111 l 490 58 b 358 10 456 26 408 10 b 69 271 217 10 88 132 b 114 426 63 332 78 386 z m 251 632 b 278 643 258 640 268 643 b 304 632 288 643 297 640 b 339 618 314 624 326 618 b 372 632 351 618 364 624 l 365 640 b 339 629 358 633 349 629 b 311 640 329 629 319 633 b 278 654 303 650 290 654 b 243 640 265 654 253 650 z "},"ö":{"ha":617,"x_min":0,"x_max":0,"o":"m 117 53 b 308 -25 171 1 239 -25 b 497 50 376 -25 444 0 l 511 64 b 582 249 558 117 582 182 b 308 522 582 400 460 522 b 119 447 240 522 172 497 l 106 433 b 117 53 7 325 11 156 z m 114 426 l 126 439 b 258 488 163 472 208 488 b 547 226 397 488 532 364 b 503 71 554 167 539 111 l 490 58 b 358 10 456 26 408 10 b 69 271 217 10 88 132 b 114 426 63 332 78 386 z m 386 618 l 425 658 l 386 697 l 346 658 z m 192 658 l 231 618 l 269 658 l 231 697 z "},"ó":{"ha":617,"x_min":0,"x_max":0,"o":"m 117 53 b 308 -25 171 1 239 -25 b 497 50 376 -25 444 0 l 511 64 b 582 249 558 117 582 182 b 308 522 582 400 460 522 b 119 447 240 522 172 497 l 106 433 b 117 53 7 325 11 156 z m 114 426 l 126 439 b 258 488 163 472 208 488 b 547 226 397 488 532 364 b 503 71 554 167 539 111 l 490 58 b 358 10 456 26 408 10 b 69 271 217 10 88 132 b 114 426 63 332 78 386 z m 281 618 l 343 682 l 336 689 l 274 626 z "},"ò":{"ha":617,"x_min":0,"x_max":0,"o":"m 117 53 b 308 -25 171 1 239 -25 b 497 50 376 -25 444 0 l 511 64 b 582 249 558 117 582 182 b 308 522 582 400 460 522 b 119 447 240 522 172 497 l 106 433 b 117 53 7 325 11 156 z m 114 426 l 126 439 b 258 488 163 472 208 488 b 547 226 397 488 532 364 b 503 71 554 167 539 111 l 490 58 b 358 10 456 26 408 10 b 69 271 217 10 88 132 b 114 426 63 332 78 386 z m 336 618 l 343 626 l 281 689 l 274 682 z "},"Ñ":{"ha":539,"x_min":0,"x_max":0,"o":"m 164 0 l 164 11 b 99 75 128 11 99 40 l 99 846 b 115 849 99 856 113 857 l 385 0 l 515 0 l 515 11 b 450 75 479 11 450 40 l 450 856 b 515 921 450 892 479 921 l 515 931 l 375 931 l 375 921 b 439 856 410 921 439 892 l 439 85 b 424 82 439 76 426 74 l 157 921 l 153 931 l 24 931 l 24 921 b 89 856 60 921 89 892 l 89 75 b 24 11 89 40 60 11 l 24 0 z m 203 978 l 211 971 b 239 982 219 979 229 982 b 265 971 249 982 258 979 b 300 956 275 961 288 956 b 335 971 314 956 325 961 l 328 978 b 300 968 321 971 310 968 b 274 978 290 968 281 971 b 239 993 264 988 251 993 b 203 978 225 993 213 988 z "},"ñ":{"ha":457,"x_min":0,"x_max":0,"o":"m 21 0 l 164 0 l 164 11 b 124 51 142 11 124 29 l 125 379 l 125 428 b 233 513 128 488 181 513 b 343 426 286 513 343 489 l 343 374 l 342 76 l 342 51 b 301 13 342 29 322 13 l 301 1 l 403 0 l 443 0 l 443 11 b 403 51 422 11 403 31 l 406 351 l 406 356 b 233 524 403 450 326 524 b 156 503 207 524 179 515 b 122 522 140 496 122 506 l 122 524 l 21 524 l 21 513 b 61 472 42 513 61 493 l 61 51 b 21 13 61 32 40 13 z m 174 647 b 201 658 182 656 192 658 b 228 647 211 658 221 656 b 263 632 238 638 250 632 b 297 647 275 632 288 638 l 290 654 b 263 644 283 647 272 644 b 236 654 253 644 243 647 b 201 669 226 664 214 669 b 167 654 189 669 176 664 z "},"Û":{"ha":728,"x_min":0,"x_max":0,"o":"m 21 919 b 61 881 42 919 61 901 l 61 274 b 356 -24 61 111 192 -24 b 650 274 518 -24 650 110 l 650 864 b 707 919 650 894 675 919 l 707 931 l 568 931 l 568 919 b 639 849 607 919 639 888 l 639 274 b 356 -12 639 115 513 -12 l 340 -12 b 122 224 217 -7 122 100 l 122 881 b 158 919 122 901 138 918 l 158 931 l 21 931 z m 289 950 l 364 1024 l 438 950 l 446 957 l 364 1039 l 282 957 z "},"Ü":{"ha":728,"x_min":0,"x_max":0,"o":"m 21 919 b 61 881 42 919 61 901 l 61 274 b 356 -24 61 111 192 -24 b 650 274 518 -24 650 110 l 650 864 b 707 919 650 894 675 919 l 707 931 l 568 931 l 568 919 b 639 849 607 919 639 888 l 639 274 b 356 -12 639 115 513 -12 l 340 -12 b 122 224 217 -7 122 100 l 122 881 b 158 919 122 901 138 918 l 158 931 l 21 931 z m 442 951 l 482 992 l 442 1032 l 401 992 z m 285 951 l 325 992 l 285 1032 l 246 992 z "},"Ú":{"ha":728,"x_min":0,"x_max":0,"o":"m 21 919 b 61 886 43 919 54 906 l 39 864 l 61 840 l 61 274 b 356 -24 61 111 192 -24 b 650 274 518 -24 650 110 l 650 864 b 707 919 650 894 675 919 l 707 931 l 568 931 l 568 919 b 639 849 607 919 639 888 l 639 274 b 356 -12 639 115 513 -12 l 340 -12 b 122 224 217 -7 122 100 l 122 881 b 158 919 122 901 138 918 l 158 931 l 119 931 l 138 949 l 131 956 l 106 931 l 21 931 z m 336 946 l 399 1010 l 392 1017 l 328 953 z "},"Ù":{"ha":728,"x_min":0,"x_max":0,"o":"m 61 881 l 61 274 b 356 -24 61 111 192 -24 b 650 274 518 -24 650 110 l 650 864 b 707 919 650 894 675 919 l 707 931 l 568 931 l 568 919 b 639 849 607 919 639 888 l 639 274 b 356 -12 639 115 513 -12 l 340 -12 b 122 224 217 -7 122 100 l 122 846 l 140 864 l 122 882 b 158 919 124 903 138 918 l 158 931 l 74 931 l 49 956 l 42 949 l 60 931 l 21 931 l 21 919 b 61 881 42 919 61 901 z m 328 1010 l 392 946 l 399 953 l 336 1017 z "},"û":{"ha":456,"x_min":0,"x_max":0,"o":"m 14 522 l 14 511 b 42 499 25 511 35 507 b 54 471 50 492 54 482 l 53 147 l 51 147 l 51 144 b 222 -24 54 53 131 -24 b 333 17 264 -24 304 -7 l 333 0 l 435 0 l 435 11 b 394 51 413 11 394 29 l 394 471 b 396 479 394 474 394 476 l 396 481 b 397 483 396 482 397 483 b 406 499 399 489 401 494 b 408 500 407 499 408 500 b 411 503 410 501 410 503 b 417 506 413 504 414 504 l 418 507 b 424 508 419 507 422 508 b 432 510 426 510 429 510 l 435 510 l 435 522 l 293 522 l 293 511 b 321 499 304 511 314 507 b 332 471 328 492 333 482 l 332 121 l 331 100 l 331 72 b 283 -1 331 40 313 11 l 282 -1 b 222 -12 264 -8 244 -12 b 114 72 169 -12 114 11 l 114 126 l 115 447 l 115 471 b 124 494 115 479 118 486 l 128 499 b 131 501 128 500 129 500 l 132 503 b 138 506 135 504 136 506 l 139 507 b 146 510 140 508 143 508 l 153 510 l 153 511 l 156 511 l 156 521 l 54 522 z m 150 629 l 225 704 l 299 629 l 307 638 l 225 719 l 142 638 z "},"ü":{"ha":456,"x_min":0,"x_max":0,"o":"m 14 511 b 42 499 25 511 35 507 b 54 471 50 492 54 482 l 53 147 l 51 147 l 51 144 b 222 -24 54 53 131 -24 b 333 17 264 -24 304 -7 l 333 0 l 435 0 l 435 11 b 394 51 413 11 394 29 l 394 471 b 396 479 394 474 394 476 l 396 481 b 397 483 396 482 397 483 b 406 499 399 489 401 494 b 408 500 407 499 408 500 b 411 503 410 501 410 503 b 417 506 413 504 414 504 l 418 507 b 424 508 419 507 422 508 b 432 510 426 510 429 510 l 435 510 l 435 522 l 293 522 l 293 511 b 321 499 304 511 314 507 b 332 471 328 492 333 482 l 332 121 l 331 100 l 331 72 b 283 -1 331 40 313 11 l 282 -1 b 222 -12 264 -8 244 -12 b 114 72 169 -12 114 11 l 114 126 l 115 447 l 115 471 b 124 494 115 479 118 486 l 128 499 b 131 501 128 500 129 500 l 132 503 b 138 506 135 504 136 506 l 139 507 b 146 510 140 508 143 508 l 153 510 l 153 511 l 156 511 l 156 521 l 54 522 l 14 522 z m 303 629 l 343 669 l 303 710 l 263 669 z m 106 669 l 146 629 l 186 669 l 146 710 z "},"ú":{"ha":456,"x_min":0,"x_max":0,"o":"m 14 522 l 14 511 b 42 499 25 511 35 507 b 54 471 50 492 54 482 l 53 147 l 51 147 l 51 144 b 222 -24 54 53 131 -24 b 333 17 264 -24 304 -7 l 333 0 l 435 0 l 435 11 b 394 51 413 11 394 29 l 394 471 b 396 479 394 474 394 476 l 396 481 b 397 483 396 482 397 483 b 406 499 399 489 401 494 b 408 500 407 499 408 500 b 411 503 410 501 410 503 b 417 506 413 504 414 504 l 418 507 b 424 508 419 507 422 508 b 432 510 426 510 429 510 l 435 510 l 435 522 l 293 522 l 293 511 b 321 499 304 511 314 507 b 332 471 328 492 333 482 l 332 121 l 331 100 l 331 72 b 283 -1 331 40 313 11 l 282 -1 b 222 -12 264 -8 244 -12 b 114 72 169 -12 114 11 l 114 126 l 115 447 l 115 471 b 124 494 115 479 118 486 l 128 499 b 131 501 128 500 129 500 l 132 503 b 138 506 135 504 136 506 l 139 507 b 146 510 140 508 143 508 l 153 510 l 153 511 l 156 511 l 156 521 l 54 522 z m 189 638 l 196 629 l 260 693 l 253 701 z "},"ù":{"ha":456,"x_min":0,"x_max":0,"o":"m 14 522 l 14 511 b 42 499 25 511 35 507 b 54 471 50 492 54 482 l 53 147 l 51 147 l 51 144 b 222 -24 54 53 131 -24 b 333 17 264 -24 304 -7 l 333 0 l 435 0 l 435 11 b 394 51 413 11 394 29 l 394 471 b 396 479 394 474 394 476 l 396 481 b 397 483 396 482 397 483 b 406 499 399 489 401 494 b 408 500 407 499 408 500 b 411 503 410 501 410 503 b 417 506 413 504 414 504 l 418 507 b 424 508 419 507 422 508 b 432 510 426 510 429 510 l 435 510 l 435 522 l 293 522 l 293 511 b 321 499 304 511 314 507 b 332 471 328 492 333 482 l 332 121 l 331 100 l 331 72 b 283 -1 331 40 313 11 l 282 -1 b 222 -12 264 -8 244 -12 b 114 72 169 -12 114 11 l 114 126 l 115 447 l 115 471 b 124 494 115 479 118 486 l 128 499 b 131 501 128 500 129 500 l 132 503 b 138 506 135 504 136 506 l 139 507 b 146 510 140 508 143 508 l 153 510 l 153 511 l 156 511 l 156 521 l 54 522 z m 253 629 l 260 638 l 196 701 l 189 693 z "},"ﬀ":{"ha":607,"x_min":0,"x_max":0,"o":"m 14 508 l 39 508 b 56 493 47 508 56 501 l 54 75 l 54 51 b 14 11 54 29 36 11 l 14 0 l 161 0 l 161 11 l 160 11 b 132 24 150 11 139 15 b 121 51 125 31 121 40 l 119 75 l 119 138 l 118 479 l 118 492 b 136 508 118 501 126 508 l 331 508 b 347 493 339 508 347 501 l 346 75 l 346 51 b 306 11 346 29 328 11 l 306 0 l 451 0 l 451 11 b 424 24 440 11 431 15 b 411 51 417 31 411 40 l 411 138 l 410 479 l 410 492 b 426 508 410 501 418 508 l 585 508 l 585 519 l 426 519 b 410 538 417 519 410 528 l 410 694 b 494 806 410 747 446 792 b 517 808 501 807 510 808 l 525 808 b 639 696 586 808 639 758 l 639 694 l 649 694 b 524 819 649 765 593 819 l 465 819 b 442 818 457 819 449 819 b 347 696 388 804 347 754 l 347 671 b 319 711 339 686 329 700 b 233 746 297 732 267 746 l 174 746 b 150 743 165 746 158 744 b 56 622 96 729 56 681 l 56 536 b 39 519 56 526 47 519 l 14 519 z m 118 538 l 118 619 b 233 735 118 682 172 735 b 322 692 265 735 304 719 b 347 628 336 674 346 651 l 347 536 b 331 519 347 526 339 519 l 136 519 b 118 538 126 519 118 528 z "},"ﬁ":{"ha":444,"x_min":0,"x_max":0,"o":"m 39 514 b 57 497 49 514 56 506 l 54 76 l 54 51 b 14 11 54 29 36 11 l 14 0 l 161 0 l 161 11 b 133 24 150 11 140 17 b 121 51 125 31 121 40 l 121 139 l 119 476 l 119 496 b 136 514 119 506 126 514 l 285 514 b 313 501 296 514 306 508 b 325 472 321 494 325 483 l 325 51 b 285 11 325 29 307 11 l 285 0 l 424 0 l 424 11 b 386 49 403 11 386 28 l 386 472 b 424 513 386 494 403 511 l 424 524 l 136 524 b 119 542 126 524 119 532 l 119 699 b 204 811 119 751 156 797 b 260 811 218 815 246 815 b 344 732 300 804 335 772 b 336 696 349 719 344 706 l 314 675 l 354 635 l 394 675 l 369 700 b 358 719 364 706 360 713 b 235 825 347 781 296 825 l 175 825 b 57 701 108 825 57 768 l 57 540 b 39 524 56 531 49 524 l 14 524 l 14 514 z "},"ﬂ":{"ha":408,"x_min":0,"x_max":0,"o":"m 14 11 l 14 0 l 161 0 l 161 11 b 133 24 150 11 140 15 b 121 51 125 31 121 40 l 121 139 l 119 476 l 119 496 b 136 513 119 506 126 513 l 190 513 l 190 524 l 136 524 b 119 542 126 524 119 532 l 119 699 b 204 810 119 751 156 797 b 233 815 213 814 224 815 b 288 774 260 815 288 803 l 288 51 b 247 11 288 29 269 11 l 247 0 l 388 0 l 388 11 b 350 49 367 11 350 28 l 350 732 b 235 825 350 786 282 825 l 175 825 b 151 824 167 825 158 825 b 57 700 96 808 57 760 l 57 540 b 39 524 56 531 49 524 l 14 524 l 14 513 l 39 513 b 57 497 49 513 56 506 l 54 75 l 54 51 b 14 11 54 29 36 11 z "},"ﬃ":{"ha":733,"x_min":0,"x_max":0,"o":"m 14 0 l 161 0 l 161 11 l 160 11 b 121 51 139 11 121 31 l 119 75 l 119 138 l 118 481 l 118 493 b 136 510 118 503 126 510 l 331 510 b 347 494 339 510 347 503 l 346 75 l 346 51 b 306 11 346 29 328 11 l 306 0 l 451 0 l 451 11 b 411 51 431 11 411 31 l 411 138 l 410 474 l 410 493 b 426 510 410 503 418 510 l 574 510 b 603 499 585 510 596 506 b 614 469 610 490 614 481 l 614 51 b 574 11 614 29 596 11 l 574 0 l 713 0 l 713 11 b 686 22 703 11 693 15 b 675 49 679 28 675 38 l 675 469 b 713 510 675 490 692 508 l 713 521 l 426 521 b 410 538 418 521 410 528 l 410 694 b 494 806 410 747 446 794 b 550 807 514 810 528 811 b 606 775 571 801 590 790 l 614 767 b 631 736 621 758 626 747 b 621 688 638 719 633 700 l 603 671 l 643 631 l 683 671 l 660 693 b 647 718 654 700 649 710 b 524 821 639 775 581 821 l 465 821 b 442 818 457 821 449 819 b 347 696 388 804 347 754 l 347 671 b 233 746 322 715 289 746 l 174 746 b 150 743 165 746 158 744 b 56 622 96 729 56 682 l 56 538 b 39 521 56 528 47 521 l 14 521 l 14 510 l 39 510 b 56 494 47 510 56 503 l 54 75 l 54 51 b 14 11 54 29 36 11 z m 118 621 b 233 735 118 682 172 735 b 347 626 294 735 344 688 l 347 538 b 331 521 347 528 339 521 l 136 521 b 118 538 126 521 118 529 z "},"ﬄ":{"ha":697,"x_min":0,"x_max":0,"o":"m 14 521 l 14 510 l 39 510 b 56 494 47 510 56 503 l 54 75 l 54 51 b 14 11 54 29 36 11 l 14 0 l 161 0 l 161 11 l 160 11 b 132 24 150 11 139 15 b 121 51 125 31 121 40 l 119 75 l 119 138 l 118 481 l 118 493 b 136 510 118 503 126 510 l 331 510 b 347 493 339 510 347 503 l 346 75 l 346 51 b 306 11 346 29 328 11 l 306 0 l 451 0 l 451 11 b 424 24 440 11 431 15 b 411 51 417 31 411 40 l 411 138 l 410 474 l 410 493 b 426 510 410 503 418 510 l 481 510 l 481 521 l 426 521 b 410 538 418 521 410 528 l 410 694 b 494 806 410 747 446 792 b 517 808 501 807 510 808 b 557 804 529 808 546 810 b 565 797 560 803 563 800 b 578 769 574 790 578 781 l 578 51 b 538 11 578 29 560 11 l 538 0 l 676 0 l 676 11 b 650 22 667 11 657 15 b 639 49 643 28 639 38 l 639 711 b 538 819 639 764 593 819 l 465 819 b 442 818 457 819 449 819 b 347 696 388 804 347 754 l 347 671 b 233 746 325 717 286 746 l 174 746 b 150 743 165 746 158 744 b 56 622 96 729 56 681 l 56 536 b 39 521 56 528 47 521 z m 118 621 b 204 731 118 674 154 718 l 225 735 l 233 735 b 322 692 265 735 304 719 b 347 626 338 674 346 651 l 347 536 b 331 521 347 528 339 521 l 136 521 b 118 538 126 521 118 528 z "},"ﬆ":{"ha":865,"x_min":0,"x_max":0,"o":"m 33 328 b 75 258 40 301 56 278 l 90 244 b 143 215 107 232 124 222 b 210 190 165 206 188 199 b 243 179 221 186 232 183 l 275 169 b 322 136 293 163 310 151 b 313 25 356 103 342 54 b 224 -11 289 3 257 -11 l 219 -11 b 131 17 186 -11 154 -1 b 117 28 126 21 121 24 b 85 100 96 49 85 74 l 74 100 l 74 -17 l 85 -17 l 85 11 b 110 21 85 24 100 31 b 219 -21 147 -17 194 -21 l 224 -21 b 256 -18 235 -21 246 -19 b 367 76 304 -7 356 25 b 357 157 374 103 369 132 b 279 225 338 192 313 208 l 229 244 b 161 267 206 251 183 260 b 68 340 124 279 85 303 b 60 401 60 360 56 381 b 90 458 64 422 75 442 b 244 510 128 499 188 517 b 388 403 306 504 369 464 l 400 403 l 400 439 b 368 460 389 444 378 451 b 310 608 325 503 301 544 b 457 754 318 685 381 746 b 646 588 558 767 646 688 b 568 446 646 532 615 476 l 568 433 l 569 96 l 569 93 b 661 -25 569 36 608 -12 b 685 -28 669 -26 676 -28 l 743 -28 b 865 86 807 -28 860 22 l 865 96 l 856 96 l 856 94 b 747 -14 856 33 807 -14 b 631 93 689 -14 631 29 l 632 417 l 632 458 b 676 504 632 483 651 504 l 715 504 l 715 514 l 676 514 b 651 546 660 514 647 531 b 654 613 656 568 657 590 b 497 765 643 693 578 757 b 299 588 389 776 299 693 b 306 536 299 569 301 553 b 282 513 310 522 297 508 b 214 522 261 519 238 522 l 213 522 b 35 408 138 522 60 482 b 33 328 26 382 25 354 z "},"ǉ":{"ha":419,"x_min":0,"x_max":0,"o":"m 53 803 b 64 774 60 796 64 785 l 64 0 l 63 -304 l 63 -312 b 157 -429 63 -368 101 -418 l 239 -431 b 263 -428 246 -431 254 -429 b 357 -306 317 -414 357 -365 l 357 17 l 358 449 l 358 472 b 399 513 358 494 376 513 l 399 524 l 251 524 l 251 513 b 292 472 274 513 292 494 l 293 449 l 294 -19 l 294 -306 b 208 -417 294 -358 258 -401 b 188 -419 201 -418 194 -419 l 179 -419 b 125 -379 151 -419 125 -411 l 126 0 l 126 825 l 24 825 l 24 814 b 53 803 35 814 44 810 z m 324 635 l 364 675 l 324 715 l 283 675 z "},"ǌ":{"ha":699,"x_min":0,"x_max":0,"o":"m 21 11 l 21 0 l 164 0 l 164 11 b 124 47 143 11 126 26 l 124 51 l 125 379 l 125 399 l 126 428 b 233 511 126 489 179 511 b 344 428 286 511 344 492 l 344 372 l 342 -304 l 342 -312 b 436 -429 342 -368 381 -418 l 518 -431 b 542 -428 525 -431 533 -429 b 636 -306 596 -414 636 -365 l 636 17 l 638 449 l 638 472 b 678 513 638 494 656 513 l 678 524 l 531 524 l 531 513 b 571 472 553 513 571 494 l 572 449 l 574 -19 l 574 -306 b 488 -417 574 -358 538 -401 b 467 -419 481 -418 474 -419 l 458 -419 b 404 -379 431 -419 404 -411 l 406 0 l 406 42 b 403 383 404 175 407 376 b 235 524 389 464 317 524 b 156 504 207 524 181 517 b 124 524 142 496 124 507 l 21 524 l 21 513 b 50 501 32 513 42 508 b 61 472 57 493 61 483 l 61 50 b 21 11 61 31 39 11 z m 563 675 l 603 635 l 643 675 l 603 715 z "}}}
